<?xml version="1.0" standalone="no"?>
<!DOCTYPE svg PUBLIC "-//W3C//DTD SVG 20010904//EN"
 "http://www.w3.org/TR/2001/REC-SVG-20010904/DTD/svg10.dtd">
<svg version="1.0" xmlns="http://www.w3.org/2000/svg"
 width="600.000000pt" height="298.000000pt" viewBox="0 0 600.000000 298.000000"
 preserveAspectRatio="xMidYMid meet">
<metadata>
Created by potrace 1.11, written by Peter Selinger 2001-2013
</metadata>
<g transform="translate(0.000000,298.000000) scale(0.100000,-0.100000)"
fill="#000000" stroke="none">
<path d="M1885 2961 c-151 -40 -255 -87 -370 -169 -142 -100 -315 -293 -382
-426 -19 -39 -51 -88 -69 -109 -19 -20 -34 -43 -34 -50 0 -7 -17 -33 -38 -58
-20 -25 -63 -99 -95 -165 -33 -65 -76 -153 -97 -194 l-38 -75 -89 -6 c-48 -4
-132 -7 -185 -8 -78 -1 -98 -4 -98 -15 0 -17 69 -75 116 -99 38 -20 158 -41
180 -33 27 11 9 -63 -52 -214 -31 -74 -73 -184 -95 -243 -43 -119 -61 -158
-95 -202 -12 -16 -26 -43 -30 -60 -3 -16 -17 -41 -29 -55 -13 -14 -32 -43 -43
-65 -28 -56 -247 -278 -300 -304 -45 -23 -60 -59 -19 -47 12 4 43 13 69 20 66
18 112 53 258 193 149 144 238 253 299 366 24 45 56 100 72 122 16 22 38 69
49 105 11 36 53 146 93 245 72 177 74 180 108 188 19 4 81 18 139 31 58 13
128 33 155 44 79 32 175 59 175 49 0 -21 -70 -168 -106 -223 -46 -68 -61 -102
-108 -239 -18 -55 -48 -140 -65 -188 -35 -96 -38 -150 -8 -155 31 -6 130 37
171 73 21 18 49 36 62 39 14 4 56 32 95 64 64 52 68 57 45 60 -14 2 -54 -11
-90 -27 -84 -41 -97 -40 -89 2 11 64 45 152 102 266 32 64 61 129 65 145 4 16
20 48 35 70 39 57 101 189 101 216 0 22 -3 22 -53 17 -29 -4 -80 -16 -113 -27
-32 -12 -97 -25 -143 -31 -46 -5 -91 -14 -100 -19 -10 -5 -57 -11 -107 -15
-49 -3 -104 -8 -123 -11 -33 -5 -33 -5 -26 23 3 15 29 78 56 139 27 61 49 120
49 131 0 11 13 45 29 75 16 30 34 73 40 95 6 23 28 61 48 85 19 24 51 74 69
112 63 128 210 296 359 409 90 68 146 93 255 113 226 41 346 -9 344 -144 -1
-165 -154 -302 -413 -369 -133 -34 -195 -27 -283 31 -16 10 -28 14 -28 9 0 -6
29 -25 64 -43 63 -32 66 -32 179 -29 l114 4 107 53 c303 151 394 408 181 515
-51 25 -189 29 -270 8z"/>
<path d="M4234 2641 c-43 -21 -88 -48 -99 -59 -130 -131 -156 -171 -313 -482
-62 -124 -98 -206 -106 -250 -29 -139 -84 -288 -109 -296 -10 -3 -50 -6 -88
-7 -47 -1 -69 -5 -69 -13 0 -20 58 -63 103 -76 23 -6 43 -13 45 -14 2 -1 -4
-19 -12 -39 -9 -21 -16 -48 -16 -61 0 -30 -45 -184 -64 -223 -9 -16 -25 -64
-37 -108 -11 -43 -34 -98 -49 -123 -16 -25 -37 -67 -48 -95 -10 -27 -33 -72
-50 -99 -18 -28 -32 -56 -32 -63 0 -18 -197 -216 -238 -239 -36 -21 -37 -41
-1 -36 62 8 191 103 295 215 79 85 188 233 211 287 11 25 36 68 55 95 53 74
75 123 103 229 14 52 34 124 45 158 11 35 20 71 20 80 0 27 26 45 77 53 92 13
485 139 503 161 10 12 8 14 -16 14 -16 0 -54 -7 -84 -15 -30 -9 -127 -24 -215
-35 -88 -11 -173 -23 -188 -26 l-29 -6 7 59 c9 72 31 141 152 463 123 329 165
411 259 503 52 51 84 67 157 76 l62 8 -76 2 c-68 1 -82 -2 -155 -38z"/>
<path d="M4964 2531 c-151 -112 -342 -385 -404 -578 -15 -49 -45 -128 -65
-176 -20 -48 -44 -123 -52 -165 -9 -42 -35 -120 -59 -173 -29 -64 -46 -117
-50 -158 l-7 -61 32 0 c17 0 46 6 64 13 18 8 61 17 97 21 102 11 132 18 122
28 -4 4 -32 11 -60 15 l-52 6 0 41 c0 66 29 223 61 333 16 56 34 125 39 152 5
27 21 73 36 103 14 29 39 95 55 145 16 55 40 108 58 130 16 21 33 51 37 66 3
16 23 45 44 65 20 21 49 58 63 84 28 49 78 105 112 125 19 11 19 12 -6 12 -14
1 -44 -12 -65 -28z"/>
<path d="M1726 2215 c-58 -16 -85 -40 -121 -108 -15 -29 -38 -66 -51 -84 -13
-17 -24 -39 -24 -48 0 -14 6 -16 38 -10 49 9 88 37 137 97 22 28 66 69 98 91
71 51 76 77 15 76 -24 0 -65 -7 -92 -14z"/>
<path d="M5901 1881 c-36 -38 -100 -105 -141 -150 -41 -45 -163 -170 -270
-277 -163 -164 -205 -201 -258 -226 -34 -17 -80 -32 -101 -35 -33 -5 -44 -1
-66 21 -24 24 -27 33 -21 69 4 23 26 83 50 132 24 50 47 100 51 113 3 12 22
42 40 67 19 24 44 63 56 87 12 24 36 61 54 83 31 38 55 77 55 89 0 3 -14 6
-30 6 -36 0 -82 -22 -186 -90 -42 -28 -81 -50 -85 -50 -30 0 -98 -45 -109 -71
-17 -40 -8 -45 40 -20 22 11 40 17 40 11 0 -5 -29 -51 -64 -102 -90 -133 -108
-172 -113 -248 -5 -76 15 -118 68 -145 99 -52 327 -6 424 84 44 41 158 125
149 109 -4 -7 -25 -39 -45 -71 -21 -32 -45 -80 -54 -107 -10 -31 -27 -57 -44
-70 -18 -12 -49 -61 -82 -127 -30 -60 -75 -136 -101 -169 -26 -34 -63 -88 -84
-120 -73 -117 -89 -136 -218 -256 -142 -132 -236 -198 -392 -276 -151 -75
-228 -97 -354 -97 -93 0 -115 4 -194 32 -99 36 -130 59 -157 118 -44 95 -12
210 88 316 95 101 279 222 396 260 115 38 270 55 364 40 37 -6 68 -9 70 -7 2
1 -24 11 -57 21 -92 28 -273 17 -400 -24 -52 -17 -118 -44 -147 -59 -117 -62
-275 -208 -339 -313 -32 -54 -39 -75 -42 -130 -5 -75 14 -122 73 -188 48 -52
104 -78 210 -93 144 -21 265 -16 370 16 191 57 432 198 630 368 165 142 343
346 385 444 10 23 30 55 44 70 39 44 153 228 206 334 12 25 35 61 50 80 33 42
66 110 80 165 5 22 26 67 46 100 20 33 47 81 60 107 13 26 33 52 43 57 10 6
24 24 30 41 5 17 26 50 46 74 19 24 35 50 35 60 0 33 -35 14 -99 -53z"/>
<path d="M3125 1900 c-140 -18 -389 -157 -496 -278 -23 -26 -52 -68 -65 -94
-26 -50 -33 -55 -52 -36 -9 9 -18 9 -38 0 -32 -15 -28 -30 17 -60 28 -19 35
-32 41 -73 12 -75 82 -176 147 -208 99 -51 309 -48 422 6 76 36 219 140 219
160 0 25 -43 13 -95 -27 -68 -52 -122 -71 -227 -77 -133 -9 -196 24 -260 135
l-17 29 87 6 c163 12 328 76 416 162 59 57 99 143 104 223 5 75 -7 105 -53
127 -35 16 -55 17 -150 5z m39 -106 c26 -26 20 -95 -11 -142 -53 -77 -126
-144 -193 -176 -54 -25 -80 -31 -159 -34 l-94 -5 7 49 c18 133 127 247 296
310 51 18 135 18 154 -2z"/>
<path d="M2076 1865 c-16 -8 -46 -31 -67 -50 -48 -43 -119 -79 -198 -101 -34
-10 -61 -21 -61 -26 0 -13 53 -9 103 8 25 8 58 14 74 12 25 -3 28 -7 27 -38 0
-20 -17 -71 -37 -115 -19 -44 -52 -134 -72 -200 -21 -66 -57 -159 -81 -206
-49 -95 -64 -149 -44 -149 27 0 136 44 158 64 31 28 62 90 101 206 18 52 46
116 63 142 47 75 169 183 254 224 69 35 78 37 143 31 76 -6 82 -4 125 54 33
45 33 56 -1 91 -65 68 -183 16 -347 -152 -59 -60 -116 -114 -126 -120 -19 -10
-19 -7 4 54 14 36 29 73 34 83 16 33 44 151 40 174 -4 30 -49 37 -92 14z"/>
</g>
</svg>
