<?xml version="1.0" encoding="UTF-8" standalone="no"?>
<!-- Created with Inkscape (http://www.inkscape.org/) -->
<svg xmlns:rdf="http://www.w3.org/1999/02/22-rdf-syntax-ns#" xmlns="http://www.w3.org/2000/svg" version="1.1" xmlns:cc="http://creativecommons.org/ns#" xmlns:dc="http://purl.org/dc/elements/1.1/" viewBox="0 0 425.3 55.13">
 <metadata>
  <rdf:RDF>
   <cc:Work rdf:about="">
    <dc:format>image/svg+xml</dc:format>
    <dc:type rdf:resource="http://purl.org/dc/dcmitype/StillImage"/>
    <dc:title/>
   </cc:Work>
  </rdf:RDF>
 </metadata>
 <g transform="matrix(1.1717598,0,0,-1.1717598,5.9893524,106.91349)">
  <g transform="scale(0.1,0.1)">
   <path fill-rule="nonzero" fill="#231f20" d="m3457,897.4c-29.17-24.23-71.64-30.84-82.76-39.19-4.35-5.293-7.34-12.98-9.2-18.65v-4.563l-1.36,0.34c-0.49-1.75-0.76-2.84-0.76-2.84s-67.5-102.9-151-164.4c-11.25,5.446-24.18,14.09-37.63,23.84l-19,3.1-4.26,14.68c-14.07,11.36-28.41,23.91-42.66,36.73l-20.58,4.844-9.93,23.16c-38.79,36.45-72.24,70.07-85.07,79.72-4.82,5.687-2.41,23.37,10.38,33.01,2.48,3.339,0.87,7.664-3.46,10.26-23.36-12.67-76.53-46.61-141.9-52.79-63.17-4.078-192.1-1.668-257.1,2.598-56.13,0.863-35.36,19.9-56.13,10.2-13.85-12.8-45-35.3-45-35.3s-3.4-8.652,3.46-13.84c32.58,1.73,192.5,13.84,210.2-0.868-2.48-17.49-2.48-53.65,4.82-118.6,1.91-17.02,1.13-31.55,0.99-46.74l12-4.6-11-33.7c-0.96-16.79-2.19-33.21-1.88-46.48,1.06-45.86-22.97-54.66-4.83-52.66,22.5,2.472,25.72,16.07,53.04,21.7,10.49,2.16,15.27,6.738,15.27,13.66-12.68,51-2.48,149.7-5.94,194.7-2.59,46.73-3.53,60.54-1.73,67.5,2.6,7.543,11.69,17.43,19.04,18.23,23.37-2.472,116.8,10.7,138.5,2.535,23.09-11.17,62.4-56.35,106.1-95.48h24.93v-21.69c48.29-38.67,81.11-65.68,95.67-77.54-0.2-2.094-0.62-5.875-0.99-9.184l4.07,0.914-6.14-19.45c-5.57-48.76-15.76-136.7-11.9-142.5,4.82-3.215,12.37-1.605,35.73,14.46,16.51,9.645,44.14,5.625,54.27,13.85,0.37,2.308,0.6,7.375,0.77,13.47l-20.23,11.43,20.48,1.863c0.32,37.83-1.02,100-1.02,100s-1.6,5.625,0.81,12.55c10.81,13.46,22.32,27,34.12,40.52l-2,8.9h9.74c0.47,0.527,0.94,1.051,1.41,1.578l-6.15,7.172h12.55c70.77,78.98,149.3,153.9,179.2,192,2.54,8.898,7.92,24.23-4.82,21.63zm-987-84.9c2.38,20,6.32,34.34,15.2,40.77,1.67,3.335-10.69,5.683-25.96,0.863-64.28-35.29-58.35-21.63-63.17-29.42,1.63-34.86,8.82-119,11.81-178.5h5.69l2.5-40-6.82-4.547c-0.08-7.129-0.41-12.64-1.06-15.9-9.89-61.07-22.5-46.67-24.98-62.68,0-6.488-5.07-4.758,0-10.82,24.98-1.731,49.21,19.04,76.9,30.1,4.26,33.94,1.73,167.2,4.26,196.6,0.47,5.375,0.71,9.914,1.07,15.03l-5.62,3.437-7.5,21.25,15.47,7.184c0.16,2.296,0.37,4.226,0.53,6.433l-17.25,20.13h18.93zm-128.4,48.93c-19.41-8.156-60.39-30.28-71.64-36.72-1.73-11.25,23.18-11.25,24.91-35.48,0.06-0.898,0.11-3.269,0.18-4.554l6.07-0.926-2.5-15-3.05-1.062c1.08-52.62,0.67-174.6-6.32-180.3-9.9,5.153-83.13,70.09-106.9,95.09-23.75,25-72.5,88.75-105.6,119.7-50.19,46.73-21.38,65.64-38.07,59.22-15.46-3.211-48.47-35.36-73.31-49.82,0-8.531,17.87-6.875,21.34-19.73,2.5-41.25,3.12-168.1-3.45-234.4-99.68-5.023-302.2-23.77-354.8,15.36-1.73,34.61-10.13,193.7-6.92,241.9,60.33,9.645,246.9-22.13,278.6,34.98-50.32-6.555-101.2-8.5-149.1-8.559v-3.746h-25l-2.76,3.727c-90.12,1.324-165.2,8.992-195.1,6.847-3.91-14.75,17.05-16.78,25.28-39.69l7.58-2.137-6.22-6.223c0.86-4.589,2.56-7.972,2.29-14.14,0.7-23.86,3.56-59.3,6.54-94l12.39-1.887-10.29-22.44c3.09-35.36,5.83-66.79,5.83-79.34,0-38.97-12.86-40.18-24.48-45-133.3,46.6-207,124.9-248.7,156,3.22,12.11,49.04,11.75,93.22,30.41,34.86,14.73,74.44,44.39,78.75,76.89,4.14,31.25-80.36,41.54-165.5,45-107.6,4.375-159.2-1.73-192.9-12.11-1.6-11.75,24.98-13.35,26.71-31.15,1.73-23.98,6.92-69.24,6.92-88.27-32.02,1.605-73.8-17.68-77.02-28.93,46.61,8.16,67.25,6.43,77.02,1.606,1.41-32.13,0.72-57.82-0.81-79.89l7.54-11.54-8.91-5.789c-6.97-66.38-23.7-84.1-20.2-87.6,17.19,0,45,32.14,75.54,41.79-3.21,23.24-6.43,125.4-4.82,143,34.74-4.821,254.5-164.8,296.1-178.4,76.78,15.33,73.56,3.215,112.1,4.945,47.37,9.875,183.3,0.77,333.9,2.645,3.85,0,16.25,1.25,34.38,5.625,0-4.367,1.25-6.875,3.75-7.5,18.12,8.75,47.5,7.5,53.12,24.38,1,21.37-0.22,68.8-0.81,113.1l-0.44,0.047-13.75,27.5h13.95c-0.02,3.949-0.05,7.957-0.04,11.71l-12.66,13.29,12.83,2.75c0.16,9.508,0.42,18.22,0.92,24.75,0,15.33,8.75,43.07,23.46,21.44,6.8-13.97,197.8-198,237.6-247.9,9.89,0,22.01,27.2,48.22,45,0.98,7.836,0.44,19.66,0.16,30.86l-4.45,5.566-6.25,51.25h8.51c-0.42,7.891-0.83,13.93-1.19,22.59-3.21,77.89,16.16,191.9,8.16,195.1zm-1140-148.3c-9.64,3.461-12.17,83.6-6.42,105,16.07,12.86,49.82,11.25,112.7,11.25,1.37,0,2.69-0.109,4.05-0.125l21.24,5.84-0.42-6.789c44.66-3.59,79.01-17.69,60.06-50.36-27.81-41.78-109.3-68.24-191.2-64.78zm765,6.926c-13.17-0.762-27.86-1.211-43.18-1.531l-1.46-8.469-14.81,8.23c-87.13-1.125-195.8,2.379-258.8-1.695-3.21-6.922-6.43-20.64-6.43-27.07,183.2,20.15,268.3-26.58,324.6,30.54zm-908,6.426c-152.1-20.2-243.8-6.4-316.5-8.1-3.215-6.926,0-22.38,0-28.8,3.504,0.449,6.555,0.48,10.01,0.879l21.24,9.656,3.008-7.52c162.7,13.79,264.7-25.44,282.4,33.95zm-46.61,123.4c-98.65-13.84-353.6-3.461-385.7-3.461-8.512-12.22,23.95-22.26,30.96-49.62-3.519,0.257-6.789-0.114-7.742-2.977,4.75-21.38,9.805-36.68,13.34-59.26,3.852-56.14,10.06-124.4,10.06-144.7,0-36.96-22.62-50.07-24.36-70.59,193,12.12,289.5-4.945,371.5,0,23.11,5.196,51.43,10.39,76.77,38.45-15.58,1.605-338.7-19.41-368.7,15.21-0.328,6.597-0.937,18.65-1.625,32.67l-14.2,17h13.71c-2.93,61.79-6.84,156.9-4.477,192.3,60.33,9.645,259-22.13,290.8,34.98zm-407.8-239.8c2.379,7.645,4.48,15.31,4.48,22.87,0,47.24-49.61,64.43-71.94,71.56-37.06,11.82-247,16.09-297.6,49.09l-26.73,2.742,16.25,7.801c-1.133,2.824-1.301,5.808-0.293,8.984,0.184,0.57,0.629,0.988,0.82,1.555l-14.3,16.5,24.8,3.305c40.04,59.1,151.5,74.73,210.2,63.66,35.36-6.68,13.97-41.79,35.36-32.14,14.71,31.9,80.36,28.93,59.83,46.61-45.23,14.14-100,20.4-152.3,16.57-126.1-16.57-238.8-84.44-235.6-131.2,1.535-17.54,13.01-33.01,30.65-46.29,39.91-28.14,123.5-30.6,197.1-37.95l32.4,6.2,16.1-12.6c25.25-4.3,47.5-10.2,63.14-19.73,77.84-44.86-20.52-147.8-190.5-142.3v-9.148l-15,3.75-5.375,6.273c-43.88,3.622-91.87,14.28-142.6,34.99-24.32,10.62,5.946,58.55-13.1,51.77-15.7-23.39-76.9-42.13-66.52-65.38,21.05-4.207,56.14-25.35,117.3-40.73,6.504,3.234,13.54,5.566,20.27,5.566,10.39,0,16.41-6.395,20.13-13.87,32.08-5.363,69.4-8.824,114-8.086,118.8,1.965,219.8,55.43,257.1,115l-14.9,24.4h26.75"/>
  </g>
 </g>
</svg>
