<?xml version="1.0" encoding="utf-8"?>
<!-- Generator: Adobe Illustrator 26.5.0, SVG Export Plug-In . SVG Version: 6.00 Build 0)  -->
<svg version="1.1" id="Layer_1" xmlns="http://www.w3.org/2000/svg" xmlns:xlink="http://www.w3.org/1999/xlink" x="0px" y="0px"
	 viewBox="0 0 5669.3 2834.6" style="enable-background:new 0 0 5669.3 2834.6;" xml:space="preserve">
<style type="text/css">
	.st0{fill:#EB9839;}
	.st1{fill:#221D1B;}
	.st2{fill:#C53F2D;}
	.st3{fill:#231F20;}
	.st4{fill:#2DABE2;}
</style>
<rect x="0" y="0" class="st0" width="5669.3" height="1417.3"/>
<rect x="0" y="1417.3" class="st1" width="5669.3" height="1417.3"/>
<path class="st2" d="M2834.6,354.3c-587.1,0-1063,475.9-1063,1063c0,587.1,475.9,1063,1063,1063c587.1,0,1063-475.9,1063-1063
	C3897.6,830.3,3421.7,354.3,2834.6,354.3z M2834.6,2170.3c-415.8,0-753-337.1-753-753c0-415.8,337.1-752.9,753-752.9
	c415.9,0,752.9,337.1,752.9,752.9C3587.6,1833.2,3250.5,2170.3,2834.6,2170.3z"/>
<circle class="st3" cx="1707.8" cy="414" r="265.8"/>
<circle class="st0" cx="3861.8" cy="2439.5" r="177.2"/>
<path class="st4" d="M2830.9,2170.3c-414.1-2-749.2-338.3-749.2-752.9c0-414.6,335.1-750.9,749.2-752.9
	c-316.3,2.6-572.1,338.7-572.1,752.9C2258.9,1831.5,2514.6,2167.6,2830.9,2170.3z"/>
</svg>
