<?xml version="1.0" encoding="UTF-8"?>
<svg xmlns="http://www.w3.org/2000/svg" xml:space="preserve" width="150mm" height="100mm" shape-rendering="geometricPrecision" text-rendering="geometricPrecision" image-rendering="optimizeQuality" fill-rule="evenodd" clip-rule="evenodd"
viewBox="0 0 150 100" xmlns:xlink="http://www.w3.org/1999/xlink">
  <rect fill="none" width="150" height="100"/>
  <polygon fill="#002868" points="0,0 75,0 75,100 0,100 "/>
  <polygon fill="#BF0A30" points="149.96,0 74.96,0 74.96,7.6923 149.96,7.6923 "/>
  <polygon fill="#FFFFFF" points="149.96,7.6923 74.96,7.6923 74.96,15.3846 149.96,15.3846 "/>
  <polygon fill="#BF0A30" points="149.96,15.3846 74.96,15.3846 74.96,23.0769 149.96,23.0769 "/>
  <polygon fill="#FFFFFF" points="149.96,23.0769 74.96,23.0769 74.96,30.7692 149.96,30.7692 "/>
  <polygon fill="#BF0A30" points="149.96,30.7692 74.96,30.7692 74.96,38.4615 149.96,38.4615 "/>
  <polygon fill="#FFFFFF" points="149.96,38.4615 74.96,38.4615 74.96,46.1538 149.96,46.1538 "/>
  <polygon fill="#BF0A30" points="149.96,46.1538 74.96,46.1538 74.96,53.8462 149.96,53.8462 "/>
  <polygon fill="#FFFFFF" points="149.96,53.8462 74.96,53.8462 74.96,61.5385 149.96,61.5385 "/>
  <polygon fill="#BF0A30" points="149.96,61.5385 74.96,61.5385 74.96,69.2308 149.96,69.2308 "/>
  <polygon fill="#FFFFFF" points="149.96,69.2308 74.96,69.2308 74.96,76.9231 149.96,76.9231 "/>
  <polygon fill="#BF0A30" points="149.96,76.9231 74.96,76.9231 74.96,84.6154 149.96,84.6154 "/>
  <polygon fill="#FFFFFF" points="149.96,84.6154 74.96,84.6154 74.96,92.3077 149.96,92.3077 "/>
  <polygon fill="#BF0A30" points="149.96,92.3077 74.96,92.3077 74.96,100 149.96,100 "/>
  <rect fill="#DE2910" x="23.077" y="15.3847" width="103.846" height="69.2307"/>
  <polygon fill="#FFDE00" points="44.0323,51.4298 46.263,44.5208 40.4009,40.2377 47.661,40.2243 49.923,33.3255 52.1793,40.2261 59.4393,40.2456 53.5737,44.5239 55.7987,51.4346 49.9173,47.1781 "/>
  <polygon fill="#FFDE00" points="82.0551,69.3325 86.9544,71.3013 90.3591,67.2657 90.0006,72.5335 94.8909,74.5246 89.77,75.8115 89.3876,81.0777 86.5813,76.6052 81.4546,77.8687 84.8411,73.8177 "/>
  <polygon fill="#FFDE00" points="108.574,42.7865 103.373,41.8793 100.882,46.5346 100.137,41.3073 94.9396,40.3765 99.681,38.0531 98.9602,32.8224 102.635,36.6138 107.387,34.3119 104.917,38.9785 "/>
  <polygon fill="#FFDE00" points="97.5289,66.4404 99.1511,61.4157 94.8879,58.3007 100.168,58.2909 101.813,53.2737 103.454,58.2923 108.734,58.3064 104.468,61.4179 106.086,66.4439 101.809,63.3483 "/>
  <polygon fill="#FFDE00" points="82.3125,20.5516 87.1019,22.7741 90.7133,18.9222 90.0796,24.1641 94.8589,26.4084 89.6777,27.4255 89.0202,32.6644 86.4518,28.0511 81.2661,29.0447 84.8599,25.1765 "/>
  <polygon fill="#FFDE00" points="54.1923,66.6698 56.423,59.7608 50.5609,55.4777 57.821,55.4643 60.083,48.5655 62.3393,55.4661 69.5993,55.4856 63.7337,59.7639 65.9587,66.6746 60.0773,62.4181 "/>
</svg>
