<?xml version="1.0" encoding="UTF-8"?>
<!DOCTYPE svg PUBLIC "-//W3C//DTD SVG 1.1//EN" "http://www.w3.org/Graphics/SVG/1.1/DTD/svg11.dtd">
<svg version="1.1" xmlns="http://www.w3.org/2000/svg" xmlns:xlink="http://www.w3.org/1999/xlink" x="0" y="0" width="100" height="146" viewBox="0, 0, 100, 146">
  <g id="Layer_1">
    <path d="M25.022,0 L47.837,0.686 L47.697,6.754 L47.749,6.756 L47.888,0.722 L70.703,1.408 L70.633,4.436 L93.058,5.051 L92.418,30.352 L100,31.227 L99.178,45.74 L98.38,73.759 L73.206,91.965 L86.274,143.515 L13.431,144.137 L26.514,93.911 C26.514,93.911 0.379,71.089 0.379,71.089 C0.379,71.089 1.804,4.936 1.804,4.936 L2.102,4.948 L2.156,2.812 L24.943,3.437 L25.022,0 z" fill="#007C60"/>
    <path d="M-0,59.728 L99.211,59.728 L99.211,70.273 L-0,70.273 L-0,59.728 z" fill="#FFD53B"/>
    <path d="M0.521,40.488 L99.732,40.488 L99.732,51.033 L0.521,51.033 L0.521,40.488 z" fill="#FFD53B"/>
    <path d="M1.131,46.708 C1.131,46.708 0.379,71.089 0.379,71.089 C0.379,71.089 26.514,93.911 26.514,93.911 L13.431,144.137 L86.274,143.515 L73.206,91.965 L98.38,73.759 L99.192,45.245" fill-opacity="0" stroke="#000000" stroke-width="2"/>
    <path d="M25.022,0 L47.837,0.686 L46.747,47.981 L23.932,47.295 z" fill-opacity="0" stroke="#000000" stroke-width="2"/>
    <path d="M47.888,0.722 L70.703,1.408 L70.215,28.242" fill-opacity="0" stroke="#000000" stroke-width="2"/>
    <path d="M69.613,48.703" fill-opacity="0" stroke="#000000" stroke-width="2"/>
    <path d="M2.156,2.812 L24.971,3.438 L23.881,46.573 L0.927,46.353 z" fill-opacity="0" stroke="#000000" stroke-width="2"/>
    <path d="M70.243,4.426 L93.058,5.051 L92.374,30.415" fill-opacity="0" stroke="#000000" stroke-width="2"/>
    <path d="M99.021,48.508 L100,31.228 L55.946,26.139 C56.094,26.504 46.752,47.143 46.752,47.143" fill-opacity="0" stroke="#000000" stroke-width="2"/>
    <path d="M30.412,77.563 L36.715,58.043 L20.152,45.942 L40.664,45.904 L47.055,26.413 L53.43,45.909 L73.942,45.964 L57.369,58.051 L63.656,77.576 L47.039,65.55 z" fill="#000000"/>
  </g>
</svg>
