<?xml version="1.0" encoding="UTF-8"?>
<svg version="1.1" viewBox="0 0 2048 1006" width="344" height="169" xmlns="http://www.w3.org/2000/svg">
<path transform="translate(637,7)" d="m0 0h31l17 2 13 4 12 6 14 10 7 7 9 14 6 16 2 11v19l-4 16-6 15-8 14-10 14-9 10-13 13-14 11-16 11-28 17-21 10-16 6-19 5-16 3-11 1h-12l-15-2-12-5-10-6-10-9-7-14v-3l6 2 8 5 21 5h32l17-3 35-10 15-6 20-10 27-16 12-9 14-12 8-9 7-12 6-16 1-5 1-18-2-16-5-12-9-10-12-6-9-3-6-1h-31l-19 3-28 7-21 7-17 8-17 12-14 11-12 11-8 7-4 5-8 7-8 8-11 16-10 14-8 10-7 9h-2l-14 27-15 30-9 20-11 24-10 23-11 27-6 18-2 9v15l3 24 4 11 6 7 15 9 4 2 11-1 16-7 19-8 38-15 22-5-2-1v-16l1-5v-9l-2 4-2 23-3 4-10 1 6-14 4-20 4-36 4-17 5-12 8-7 10-5 9-1v-2l13-4 18-3h19l8 2 5 4 3 7v13l-3 7-13 11-12 14-6 10-8 11-9 16-7 12-4 8v10l5 15 1 4v19l-5 25-11 47-5 16-11 27-12 33-8 19-5 16-2 15 18 18 4 9v10l-4 8-10 13-9 11-9 10-8 8-11 9-13 9-17 9-13 4-10 2h-17l-8-6-7-8-4-12-2-15v-11l2-28 7-40 7-20 12-31 10-30 8-35v-8l-4-2-1 3v-2l-23 4-30 9-13 5-11 10-8 14-11 21-8 16-6 16-14 41-22 66-10 26-8 17-12 20-23 34-11 15-7 9-12 14-14 17-7 8-7 7-7 8-32 32-8 7-7 7-17 13-18 12-14 7-18 6-16 4h-8l-4-8-1-11 4-9 8-10 13-23 9-16 10-14 10-15 7-9 13-17 10-16 13-21 11-21 12-26 11-29 10-27 7-19 6-20 10-30 3-10 1-13h2l2-5v-3l-2-5h-2l-4-16-8-14-1-5 1-3-6-2-8-6-15-14-11-11-5-10-2-7v-12l5-8 14-12 10-6 10-4 12-1 13-4 8-1 4-3 5-2h3v2l5-2 4-1v-3l9-4 9-7 7-12 15-35 12-29 8-16 10-19 7-10 10-19 10-17 12-22 8-16 14-24 15-23 12-17 10-12 12-16 9-9 7-8 18-18 3-5 10-9 19-14 20-12 16-10 26-14 30-13 21-9 12-6 18-6 26-6zm-132 206 1 5 8 7 7 5 2-1-2-5-15-11zm-133 149 1 2zm-1 2-2 8-1 15 2 13 4 12 7 7 5 3 3-1-3-2 2-1-8-9-4-10-2-9-2-26zm180 6-7 7 1 2 6-5 1-4zm-13 12 4 1zm-5 1-10 1v1l19 1-4-3zm-18 2v1h7v-1zm27 1m2 1m2 1m1 1m-159 30m2 1m1 1m-2 1m6 1v1h8v-1zm-54 98-5 3v-2l-4 2-6 12-1 6 1-2h2l8-11 8-7zm-17 21m-1 2m-158 5m3 1v5h2l4 6 1-2-5-9zm149 9m194 1m-336 1 1 2zm141 0 1 3zm194 1 1 2zm-334 2v3l3 7 2 7 1-4-4-12zm139 0-1 6 2-2zm194 0-7 14-4 12v3l3-1 9-26zm-335 3 1 2 1-2zm139 4 1 2zm-131 11 1 2zm1 6 1 2zm314 5 1 3zm-1 3 1 3zm-1 3 1 3zm-1 4 1 4zm-1 4v5h1v-5zm-1 5 1 4z" fill="#FDD6A2"/>
<path transform="translate(1455,53)" d="m0 0h14l1 4 3-3h8l3 1-2 5h-2l-1 6-6 5-15 8-14 9-10 8-9 8-11 23-5 17-4 16-10 32-8 24-14 43-7 19-1-3 6-19-11 29-5 16v2l2-2-1 8-10 40-1 15-1 14-3 9v9l8 6 26 12 1 1h6l2-1v-2l10 1 30-2 23-3 13-4 9-6 5-5 4-6 9-20 7-15 8-19 6-14 8-26 11-33 8-18 14-27 12-21 10-14 11-14 12-14 8-10 9-10 18-18 7-8 8-7 19-11 15-7 10-1 5 3-2 14-5 12-18 34-22 38-8 16-10 23-5 21-15 51-9 35-12 45-2 3 1-8 3-15v-9l8-30 1 4 5-16 2-9-1-4 11-35 7-21v-2l-8 16-12 36-13 42-9 36-4 24 2-2v11l-3 15-2-2-2 8-3 23v6l3-24 3-4 2-7 2-2-2 17-3 28v59l2 18v16l-10 5-15 6-7 4-25 7-20 3h-18l-7-8-7-14-4-16-1-8v-77l-28 6-24 12-29 12-29 13-26 13-1 4-7 10-6 11-1-4-5 12-6 21-4 22-10 39-8 24-18 39-16 32-14 23-10 15-7 11-10 14-9 10-7 8-17 17-7 8-13 13-8 7-12 11-8 7-14 11-11 8-15 10-12 5-3 1h-9l-5-2-3-4-1-3v-8l4-8 8-10 8-14 11-21 9-14 6-9 12-23 11-21 4-10h2l11-23 13-30 10-22 6-19-2 5-1-4-4 16-7 17-4 7-1-3 14-40 7-31 7-25 3-7 1 3v1-7l4-16 3-18 1-14v-15l1-9-8-10-7-13v-16l2-8 8-11 6-9h4l1 2 3-2 1 3 8-16 8-15 6-15 4-4 4-11 1-10-2-4 7-14 1-6-1-1v-9l6-13 5-20 11-32 8-19 8-20 9-20 13-29 11-22 8-13 15-22 7-10 8-11 8-8 8-7 9-8 22-15 14-7 29-8zm19 6-5 5 6-3zm-6 5m-78 114m-1 3m-1 2 1 2zm-1 3 1 2zm-1 3 1 2zm-1 2 1 3zm-1 3 1 2zm-1 3 1 2zm-1 2 1 3zm-1 3 1 3zm-1 3 1 3zm-1 3-1 6 2-3zm2 4m-4 2-7 21-3 10 1 3 9-27 1-7zm1 7m-1 3 1 2zm247 2m-248 1 1 2zm247 0 1 2zm-248 2 1 3zm-1 4 1 2zm-1 2-1 7 2-3zm-2 7 1 3zm-1 4m-4 2 1 3zm7 0 1 2zm-1 3 1 3zm-7 1 1 2zm-12 54 1 2zm-7 7m-1 3 1 2zm5 2 1 2zm-6 1 1 3zm252 3 1 2zm-253 1 1 3zm5 1 1 4zm-6 2 1 2zm5 2-4 12-1 4-1 11 2-1 5-21v-5zm-6 2 1 2zm0 28m233 31 1 3zm-1 6 1 3zm-355 7m-1 2 1 2zm-1 2 1 2zm-43 192 1 4z" fill="#FDD6A2"/>
<path transform="translate(2026,264)" d="m0 0 6 2 5 5 3 7v12l-8 27-10 27-10 22-11 30-12 36-9 25-12 29-9 17-10 18-14 25-14 24-14 26-10 20-12 21-12 20-14 23-12 19-14 22-14 21-12 15-7 9-12 13-7 7-8 7-15 13-11 11-8 7-15 14-11 9-10 9-36 27-20 14-15 10-23 16-23 15-26 15-16 8-29 12-19 7-26 7-20 4-30 3h-25l-22-2-19-4-19-7-16-8-13-9-12-11-8-11-9-16-6-15-3-14v-15l3-17 7-19 11-22 10-15 8-10 12-14 7-8 26-26 11-9 13-12 15-11 15-9 17-8 30-10 26-7 27-5 30-3h28l21 5 10 5v4l-4 5-9 4-11 2-42 4-24 4-19 5-28 10-25 11-17 9-17 12-17 13-9 7-13 11-5 5h-2l-2 4-4 2-2 4-9 10-9 13-9 16-5 12-3 15v20l3 10 6 10 11 11 13 9 16 8 16 6 17 4 8 1h18l23-4 23-6 15-5 30-13 17-8 38-24 14-9 13-12 11-9 13-12 8-7 21-21 9-11 9-10 7-8 11-17 12-17 8-10 8-12 12-15 11-17 10-14 12-23 8-19 3-14 5-24 8-28 2-4-30 10-23 5-8 1h-20l-3-1-1 1-8-1-13-4-13-8-5-4-7-10-6-16-2-10-1-12v-39l3-20 4-15 10-26 13-41 8-17 8-10 15-15 16-12 14-8 17-8 17-5 21-4h15l8 3 7 8 2 7v8l-5 16-9 20-10 20-10 19-16 31-9 21-8 27v2l2-1-1 5 1-1 3-7 2-1v23l7 11 1 8 5-2 1-2 8-4 7-2 5-6h2l2-5 3-4 1 4 3-1 8-14 7-11 9-14 12-20 9-12 11-13 9-11 24-24 10-13 13-15 11-12 9-10 7-8 4-5 8-7 11-13 7-8 8-8 13-10 15-6zm-277 230m44 73-7 5-5 12-12 37v5l4-4 12-31 8-20 1-4zm-25 59 1 2zm-185 62-1 5 4-1h-3v-2l4 1-2-3z" fill="#FDD5A2"/>
<path transform="translate(1056,326)" d="m0 0h28l15 3 12 5 10 7 5 4 9 13 5 14 4 19 1 10v18l-4 16-6 12-8 10-10 12-7 9-9 9-5 6-12 9-10 7-17 10-26 13-21 8-2 1 9-1-1 5 3 5 8 3 18 6 5 3 10 1 15-5 10-5 12-5 8-3h10l7 2 2 3 1 13-4 10-11 14-14 14-15 11-19 11-21 10-26 9-20 3-11 1h-34l-16-2-3 1-4-2-1 2-10-5-4-1-5-2-10-6-11-9-10-9-18-22-9-13-8-14-3-4-7-21-3-15v-22l3-20 1-9-2-5-10-3h-16l-14 4-13 7-10 8-10 9-13 16-14 22-8 14-9 19-11 30-15 33-11 26-8 15-7 9-5 6-11 8-10 5-21 6-10 2h-11l-6-4-4-8-2-12 1-23 6-36 6-21 8-27 12-44 5-18v-5h2l1-7-4-19h2v-4l-3 1-2 2-3-3-17-3-6-3 1-4 9-11 5-5h2l1-3h2l-1 4h2l2-6 6-8v-2h2l2-6 7-10 9-16 4-5 13-10 9-5 7-3 14-5 7-2 20-1 11 4 8 6h2l3 7 4 3v5l3 1v6l2-2v-11h-5v-2l-2-1 1-3 3-1 2 2 2 1v-3h3v-2h3l1 2 5-1 1 2h5v-3l8-2 4 4 3 4 7-1 1-3h2v-2h3l2-4 4-1 1 1 1-2h6l-5 5-1 2 10-4 1-1h-2l1-4h7l3-1 9-1 10 1 1 1 8-1 12 4 10 4 7 8 13 11 9 5 9-1 4-3v-3h5 3l11-7 18-12 13-9 23-12 11-7 24-12 23-10zm-239 49 1 2zm-48 7 2 3v-3zm25 0m-28 1m-17 2 1 2 1-2zm7 1m-8 1m5 0m8 0m9 0m-30 1m12 0m19 0m-9 1m2 0-2 3 3-1zm-4 3-3 2 5-1zm-4 2m-6 1 1 4 1-2zm-2 4-1 2 3-1zm167 1m-169 1m280 0-13 5-18 11-21 14-7 7-7 6-7 8-7 10-11 24 1 2 1-3 3-1 4-4-1 9 13-2 23-5 16-8 8-6 9-7 6-7 5-12v-5l-1-4 1-4 3 1 2-6 1-11v-12zm-2 48-4 9-5 10 4 2 6-7 1-9-1-5zm-418 1m1 2m0 2-7 8 1 2 5 1-1-2 2-1 1-3 4 3-1-5zm5 8 1 2zm-14 1m10 0m-2 2m1 1m327 23m-1 3 1 2z" fill="#F1C088"/>
<path transform="translate(649,8)" d="m0 0h30l17 4 14 7 14 10 7 7 9 14 6 16 2 11v19l-4 16-6 15-8 14-10 14-9 10-13 13-14 11-16 11-28 17-21 10-16 6-19 5-16 3-11 1h-12l-15-2-12-5-10-6-10-9-7-14v-3l6 2 8 5 21 5h32l17-3 35-10 15-6 20-10 27-16 12-9 14-12 8-9 7-12 6-16 1-5 1-18-2-16-5-12-9-10-12-6-9-3-6-1h-31l-19 3-28 7-21 7-17 8-17 12-14 11-12 11-8 7-4 5-8 7-8 8-11 16-10 14-8 10-7 9h-2l-14 27-15 30-9 20-11 24-10 23-11 27-6 18-2 9v15l3 24 4 11 6 7 15 9 4 2 11-1 16-7 19-8 38-15 22-5-2-1v-16l1-5v-9l-2 4-2 23-3 4-10 1 6-14 4-20 4-36 4-17 5-12 8-7 10-5 9-1v-2l13-4 18-3h19l8 2 5 4 3 7v13l-3 7-13 11-12 14-6 10-8 11-9 16-7 12-4 8v10l5 15 1 4v19l-5 25-11 47-5 16-11 27-12 33-8 19-5 16-2 15 18 18 4 9v10l-4 8-10 13-9 11-9 10-8 8-11 9-13 9-17 9-13 4-10 2h-17l-8-6-7-8-4-12-2-15v-11l2-28 7-40 7-20 12-31 10-30 8-35v-8l-4-2-1 3v-2l-23 4-30 9-13 5-11 10-8 14-11 21-8 16-6 16-14 41-22 66-10 26-8 17-12 20-23 34-11 15-7 9-12 14-14 17-7 8-7 7-7 8-32 32-8 7-7 7-17 13-18 12-14 7-18 6-16 4h-8l-1-3 3-5 14-7 8-8 5-2 5-5 9-3 10-6 4-4h2l2-4 3-1 2-4 35-35 7-8 9-9 9-11 3-1 1-3 7-6 9-12 11-12 11-16 9-14 9-13 7-11 5-9 6-10 6-14 3-9 5-10 4-9 2-7 7-14 5-11 7-23 5-16 11-33 5-13 10-30 7-24 3-10 6-14 8-7h5v-2l14-3 10-4 14-3 10-4 17-4 21-8 16-8 26-10h3l1-2 8-1 1-2 12-5h10l1 2-1 10-4 14-6 15-6 18-11 19-3 7-2 5-6 10-9 22-4 10-2 7-2 15-5 15-4 17-2 9h-2l-1 7-4 10-2 3v3h-2l1 4-1 3h-2l1 3h-2l1 3-2 4-3 11-3 7-1 7v12h3l1 8 8-2 10-3 17-7 10-7 5-5 6-5 9-9 8-2 8-6 11-6-1-4-3-1h-15l-4 2h-5l-4-7-1-3v-22l2-7 1-1v-6l1-3h2v-6l7-17 4-8 5-13 8-19 11-25 5-14 4-16 4-9 14-27v-2h2l1-5 3-6 4-14 2-1-1-4h2l-1-3h2l-1-3 3-6v-7l-3-3-9-1h-13l-1 2-20 7-4 2h-3l-1 2-9 5-25 3h-2v2l-4-1v2h-3-1l-17 2-6 3-4-1 1-1h-2v3l-7 1-7 3-10 1-14 3-27 6-4-1-1 2-10 1h-12l-4-2 1-14 4-16 8-18 7-21 4-11 1-4 3-9 4-20 2-9 4-8 7-16 5-15 3-11 5-13 8-11h2v-3l2-1 6-11 9-20 7-16 10-19 4-8 6-9 3-5 5-8h2l1-5 3-1 2-5 4-4 3-6 3-2 3-7 10-10 10-13 8-9 8-7 5-6v-5l6-7 8-7 5-5 8-7 7-6h2l1-3 11-6 9-4 12-5 20-8 22-7 14-3 13-3zm-144 205 1 5 8 7 7 5 2-1-2-5-15-11zm-133 149 1 2zm-1 2-2 8-1 15 2 13 4 12 7 7 5 3 3-1-3-2 2-1-8-9-4-10-2-9-2-26zm180 6-7 7 1 2 6-5 1-4zm-13 12 4 1zm-5 1-10 1v1l19 1-4-3zm-18 2v1h7v-1zm27 1m2 1m2 1m1 1m-159 30m2 1m1 1m-2 1m6 1v1h8v-1zm-54 98-5 3v-2l-4 2-6 12-1 6 1-2h2l8-11 8-7zm-17 21m-1 2m-6 15m194 1m-195 1 1 3zm194 1 1 2zm-195 2-1 6 2-2zm194 0-7 14-4 12v3l3-1 9-26zm-196 7 1 2zm184 22 1 3zm-1 3 1 3zm-1 3 1 3zm-1 4 1 4zm-1 4v5h1v-5zm-1 5 1 4z" fill="#F0C088"/>
<path transform="translate(1682,80)" d="m0 0 9 1 2 2-2 14-5 12-18 34-22 38-8 16-10 23-5 21-15 51-9 35-12 45-2 3 1-8 3-15v-9l8-30 1 4 5-16 2-9-1-4 11-35 7-21v-2l-8 16-12 36-13 42-9 36-4 24 2-2v11l-3 15-2-2-2 8-3 23v6l3-24 3-4 2-7 2-2-2 17-3 28v59l2 18v16l-10 5-15 6-7 4-25 7-20 3h-18l-7-8-7-14-4-16-1-8v-77l-28 6-24 12-29 12-29 13-26 13-1 4-7 10-6 11-1-4-5 12-6 21-4 22-10 39-8 24-18 39-16 32-14 23-10 15-7 11-10 14-9 10-7 8-17 17-7 8-13 13-8 7-12 11-8 7-14 11-11 8-15 10-12 5-3 1h-9l-5-2-3-4-1-3v-8l4-8 4-5 7-2 13-1v-2l11-8 15-5 16-16 11-9 10-12h2l2-4 5-6 6-5 5-8h2l2-4 2-5 3-3 6-7 8-12 3-6 5-7 4-4 2-5 4-4 5-10 1-3 3-3 2-6h2l1-6h2v-5h2l1-6 5-12 9-12 7-14 6-11 7-15 7-24 2-11 10-46 8-27 4-26 4-9 9-2 1-2h4v-2l13-1 13-6 28-10 14-6 16-6 10-5 16-9 13-6 17-9 14-9h3l1-3 9-6 5-5 4-6 9-20 7-15 8-19 6-14 8-26 11-33 8-18 14-27 12-21 10-14 11-14 12-14 8-10 9-10 18-18 7-8 8-7 19-11 15-7zm-58 146m-1 1 1 2zm-27 95 1 2zm-22 67 1 3zm-1 6 1 3z" fill="#F1C088"/>
<path transform="translate(2026,264)" d="m0 0 6 2 5 5 3 7v12l-8 27-10 27-10 22-11 30-12 36-9 25-12 29-9 17-10 18-14 25-14 24-14 26-10 20-12 21-12 20-14 23-12 19-14 22-14 21-12 15-7 9-12 13-7 7-8 7-15 13-11 11-8 7-15 14-11 9-10 9-36 27-20 14-15 10-23 16-23 15-26 15-16 8-29 12-19 7-26 7-20 4-30 3h-25l-22-2-19-4-19-7-16-8-13-9-12-11-8-11-9-16-6-15-3-14v-15l3-17 7-19 11-22 10-15 8-10 12-14 7-8 26-26 11-9 13-12 15-11 15-9 17-8 30-10 26-7 27-5 30-3h28l21 5 10 5v4l-4 5-9 4-11 2-42 4-24 4-19 5-28 10-25 11-17 9-17 12-17 13-9 7-13 11-5 5h-2l-2 4-4 2-2 4-9 10-9 13-9 16-5 12-3 15v20l3 13 1 4-5 2-1 8 4 7 2 11 4 6 19 8v2l6 2 8 4 7 3 19 4 20 2h27l21-2 15-5h8l4-1 12-5 13-4 17-5 33-12 15-7 10-5 25-15 12-8 10-8 24-16 11-9 7-5 4-4 9-7 9-9 8-7 5-4 1-2h2l1-3 11-9 7-7h2l2-4 4-2 2-5h2l2-4 6-5 5-5 4-2 2-5 6-7h2l2-4 7-11 6-4 4-7 2-1 1-4h2l1-4 6-8 5-5 4-5 3-3 3-4 4-5 3-7h2v-3h2v-3h2l2-6 5-6 1-4 2-2 4-9h2l1-5 4-11 2-5h2v-3l2-1 1-3 4-4 6-11 6-7 13-26 5-12 10-18 8-15 10-21 3-9 8-17h2l2-6 5-9 5-4 10-17 4-6 2-10 2-2-1-8h2l1-8 3-12 2-3 2-8 8-19 9-16 6-12 5-13 10-15 9-14 7-14 5-5 2-4h2l3-12-3-5h-5l-1-3zm-443 424-1 5 4-1h-3v-2l4 1-2-3z" fill="#F0C088"/>
<path transform="translate(458,122)" d="m0 0h4l-2 4-6 8h-2l-2 8-5 5-10 14-6 11-3 5-4 4-7 11-8 16-7 18-7 15-4 9-7 10-13 23-7 20-3 10-10 22-3 14-3 16-7 21-15 38-4 14v20l23 3h12l27-5 24-5 23-7 17-3 17-5h5l2 2-1 5-17 7-13 6-16 6-24 11-33 11-36 10-17 5-6 4-5 10-5 15-9 32-10 29-11 29-10 33-6 21-10 23-7 10-13 29-4 9-8 16-11 16-7 11-11 16-11 12-9 11-12 16-12 14-11 13-9 8-5 5-5 6-8 7-4 4-13 10-9 7-2-1 1-5 7-10 7-11 8-9 7-8 11-12 9-11 7-11 9-19 5-8 9-20 8-20 14-26 8-16 7-21 6-22 2-9 6-16 6-15 8-25 7-18 12-38 5-30 1-10-7-2-4-2-7 1h-22l-19-2-13-5-8-4-7-6-3-5 1-5 7-4 20-3 15-2 23-2 25-3 16-5 5-8 5-13 8-16 4-9 6-26 6-14 8-15 6-13 5-12 6-15 10-12 6-10 9-18 11-15 9-16 7-16 9-17 3-9 3-5 3-6 7-8 7-12 10-13 7-11 11-13 13-13 8-11 8-5z" fill="#FEFDEF"/>
<path transform="translate(1e3 347)" d="m0 0 2 1-14 8-1 5 4 1 3 6 1 1h7l7-6 15-5 9-4 6-1 20-1-15-1v-1l22-1 16-1h9l14 3 6 3 4 4 1 6 1 9 2 5v14l-1 2-1 11-3 7-3 6-2 10-3 7-5 9-3 8h-2v3l-8 7-7 10-10 10-13 9-15 8-11 5-7 4-12 6-15 5-24 6-11 1-16 4-11 2-5 2-10 2v2l-2 1 2 9 7 8 10 9 9 11 8 6 4 2v2l6 1 6 3v2l40 1 10-3 15-1 9-3 12-5 2-2 8-2h5l1 1v5l-2 4-14 11-9 6-18 7-13 4-25 2-17 3h-37l-16-4-22-10-13-12-5-5-6-9-4-9-6-8-3-5-5-21-7-12-5-3-3-6v-4l6-1 7 1 3-3 8-16 5-12 7-11 7-9 5-9 5-5 10-9 6-7 7-5h2l2-5 10-7 9-7 8-1v-5h-13l-3-5-9-3 5-4 15-10 13-9 23-12 11-7zm22 54-13 5-18 11-21 14-7 7-7 6-7 8-7 10-11 24 1 2 1-3 3-1 4-4-1 9 13-2 23-5 16-8 8-6 9-7 6-7 5-12v-5l-1-4 1-4 3 1 2-6 1-11v-12zm-2 48-4 9-5 10 4 2 6-7 1-9-1-5zm-90 40m-1 3 1 2z" fill="#FDD5A1"/>
<path transform="translate(1398,95)" d="m0 0 3 1-2 5-10 17-10 19-8 18-8 15-1 8-3 8-3 7v7l-4 16-4 8-8 27-5 17-8 20-5 19-4 15-5 12-13 49-4 18-1 6-1 33 4 5 6 4h8l11-2 21-2 16-3 20-4h5l-2 4-22 11-30 11-23 6-16 4-6 2-3 10-5 12-7 36-4 16-5 23-4 18-4 12-4 17-9 21-9 17-9 14-7 14-5 13-9 17-9 15-9 12-7 10-16 24-10 14-4 4-5 2-3 4h-4l-1-5 6-12 4-12 1-7 10-16 6-15 5-8 2-9 3-10 11-20 4-9 4-13 3-12 5-16 7-22 6-18 4-16 5-22 3-16 1-16 4-18 3-8v-6l-5-5-8-5-13-4-5-6 3-6 21-7 3-2 7-1 3-5 7-19 6-15 4-14 5-27 5-18v-17l5-19 8-16 11-28 10-23 5-11 4-10 5-13 4-9 4-12 8-16 7-13 6-4 4-9 2-6 3-4 8-17 2-7 8-3 7-8 6-4 1-2h2l2-5 7-8z" fill="#FEFDEF"/>
<path transform="translate(1056,326)" d="m0 0h28l15 3 12 5 10 7 5 4 9 13 5 14 4 19 1 10v18l-4 16-6 12-8 10-10 12-7 9-9 9-5 6-12 9-10 7-17 10-26 13-21 8-2 1 9-1-1 5 3 5 8 3 18 6 5 3 10 1 15-5 10-5 12-5 8-3h10l7 2 2 3 1 13-4 10-11 14-14 14-15 11-19 11-21 10-26 9-20 3-11 1h-34l-16-2-3 1-4-2-1 2-10-5-4-1-5-2-10-6-11-9-10-9-18-22-9-13-8-14-3-4-7-21-2-10 1-8h7l12 6 7 2 6 10 2 9 2 1 3 12 7 8 8 16 5 5 9 10 8 6 20 9 16 4h37l25-4 17-1 21-7 11-5 9-6 10-8 3-1 1-9-9 1-5 2-10 5-7 3-24 3-9 2-27-1-10-1-14-7v-2l-5-2-7-6-9-11-10-9-6-7-2-9 3-1v-2l4-2 36-8 2-1 15-2 18-4 7-3 13-4 9-5 7-4 11-5 15-8 10-7 10-9 5-6 7-9 4-4h2v-3h2v-4h2l1-6 5-9 3-7 2-11 4-7 1-3 1-11 1-2v-14l-3-10v-7l-3-5-4-3-12-3-5-1h-17l-11 2-4 2-20 1-9 2-11 5-12 3-2 4-3 2h-7l-4-5-1-3-3-1v-5l10-6 4-2 3-3 25-12 14-5z" fill="#F0C088"/>
<path transform="translate(1785,306)" d="m0 0h15l8 3 7 8 2 7v8l-5 16-9 20-10 20-10 19-16 31-9 21-8 27v2l2-1-1 5 1-1 3-7 2-1v23l7 11 1 8 5-2 1-2 4-2 5 1 1 4-7 12-11 7-10 4-14 1-4-3-6-5-8-8-3-6v-24l4-16 8-17 7-14 7-17 5-17 9-17 9-14 8-19 4-8 1-4h2l1-5 6-9 6-11 6-8-1-7-1-3-6-1-3 1-9 2-6 3-9 3-3 3-2 11-16 13-8 6-9 6-11 4-6 2-7 6h-2v2h-2l-2 4-3 3v6l8-3h6l1 6-3 10-5 7h-2v6l-3 7-2 5-8 9-3 7-4 9-6 10-6 13-2 5-5 11-2 6-1 15v17l3 9 8 12 8 5 16 7h35l19-4 13-5 11-6 3-2 10-2 10-5 6-7 3-3 6-1 8-6 4-4h2l2-4 3-2 4-2 2-4 9-4 3-3h2l1-3h2v-2l7-5 5-5 5-3h4l1 6-5 10-5 5-6 9-12 23-4 8-6 11-8 14-2 3h-2l-1 4-4 4-5-1 1-9 1-3-11 1-7 6-5 5-1-4 1-4-4 3h-2l-2 6h-2l-1 2-3 4-2 5-1-3 3-9 1-2-30 10-23 5-8 1h-20l-3-1-1 1-8-1-13-4-13-8-5-4-7-10-6-16-2-10-1-12v-39l3-20 4-15 10-26 13-41 8-17 8-10 15-15 16-12 14-8 17-8 17-5z" fill="#F1C088"/>
<path transform="translate(473,448)" d="m0 0h7l1 4-6 20-5 8-5 6-2 15-9 11h-2l-2 4-5 12-3 2-5-1v-5l5-5 4-2 1-10-2-5-4-1-14 5-4-2-5-3-1 3v-2l-23 4-30 9-13 5-11 10-8 14-11 21-8 16-6 16-14 41-22 66-10 26-8 17-12 20-23 34-11 15-7 9-12 14-14 17-7 8-7 7-7 8-32 32-8 7-7 7-17 13-18 12-14 7-18 6-16 4h-8l-1-3 3-5 14-7 8-8 5-2 5-5 9-3 10-6 4-4h2l2-4 3-1 2-4 35-35 7-8 9-9 9-11 3-1 1-3 7-6 9-12 11-12 11-16 9-14 9-13 7-11 5-9 6-10 6-14 3-9 5-10 5-13 4-5 5-3 7-12 4-11 2-15 4-15 6-19 7-20 9-25 11-34 5-18 5-13 4-4 12-5 34-9 19-6 13-3 25-11 16-8 26-9zm-132 73-5 3v-2l-4 2-6 12-1 6 1-2h2l8-11 8-7zm-17 21m-1 2m-6 15m-1 2 1 3zm-1 3-1 6 2-2zm-2 7 1 2z" fill="#D2A269"/>
<path transform="translate(1989,322)" d="m0 0h3l-2 9-16 32-13 25-6 10-3 12-4 11-2 3-3 18-4 15-8 14-7 9-11 24-12 25-9 17-8 14-12 23-8 15-6 12-6 9-6 11-8 8-3 6-3 10-10 18-12 20-14 19-11 13-7 10-6 8h-2l-2 4-8 12-14 16-12 12-8 7-7 8-3 3h-2l-2 4-5 4-5 5-8 7-5 2-2 5-8 8-2 4-16 8-3 4-4 1-2 6-2 1-2-1-1 5-4 1-2-7 3-5 4-5 7-5 6-7 12-12 7-8 21-21 6-7 5-5 11-16 8-9 6-10 11-18 12-23 12-22 9-15 9-12 6-10 7-18 6-16 6-12 10-16 6-11 7-7 7-14 4-11 4-14 8-15 8-13 7-16 2-9h-2l-2-3-9 1-5 3h-5l2-5 11-12 3-4h2l2-4 8-11 5-5 9-10 8-10 2-6 3-3 6-2 6-10 10-13 11-14 12-13 14-15 9-11 9-9z" fill="#FEFDEF"/>
<path transform="translate(2006,325)" d="m0 0 5 1v8l-3 7-4 6h-2l-2 4-3 5h-2l-2 4-6 16-7 13-3 1-2 10-7 16-4 10-4 12-3 19-6 15-5 12-7 16-11 21-11 23-14 25-13 24-12 21-8 15-5 10-5 8-11 20-3 1-2 4-7 11-10 20-3 7-7 6-5 8-5 5-4 5-4 6-7 11-7 9h-2l-3 6h-2l-2 4-4 6-1 4 4 2-1 4v4l-3 5-11 9-13 13-8 7-15 14-11 9-10 9-36 27-20 14-15 10-23 16-23 15-26 15-16 8-29 12-19 7-26 7-20 4-30 3h-25l-22-2-19-4-19-7-16-8-13-9-12-11-7-9 1-3 8 5 8 6 13 5 21 10 20 6 20 4 8 1 33 1 26-2 13-4 9-2 13-5 11-5 13-4 19-7 20-10 13-8 19-11 15-9 9-6 13-8 6-4h2l2-5 12-9 18-12 14-11 12-8 12-12 11-9 3-1 2-4h2v-2l8-7 9-9 7-8 8-9 16-16 8-12 8-7 4-6 5-4 7-11 10-13 6-7 5-8 3-6 11-15 8-13 7-17 3-9 4-6 10-14 10-16 10-18 12-23 16-32 15-33 8-17 7-9 9-15 5-8 5-15v-11l9-27 16-32 6-14 5-13 5-6 4-6z" fill="#D2A269"/>
<path transform="translate(1470,425)" d="m0 0 6 1-1 7-3 7-8 7-2 1-2-2-13 3-16 4-22 11-29 12-29 13-26 13-1 4-7 10-6 11-1-4-5 12-6 21-4 22-10 39-8 24-18 39-16 32-14 23-10 15-7 11-10 14-9 10-7 8-17 17-7 8-13 13-8 7-12 11-8 7-14 11-11 8-15 10-12 5-3 1h-9l-5-2-3-4v-6l1-2h3v4l9-3 10-6 12-9 12-11 8-7 11-12 10-9 8-7 8-9 7-6 11-14 10-12 8-11 10-14 8-13 7-10 10-18 6-12 7-16 3-6 3-4 6-11 14-26 6-15 5-18 5-21 3-14 3-12 9-39 1-3 2-23 3-6 14-7 16-3 15-6 20-7 15-5 11-4 25-9 21-5 14-4 8-4 10-3z" fill="#D2A269"/>
<path transform="translate(649,8)" d="m0 0h30l17 4 14 7 14 10 7 7 9 14 6 16 2 11v19l-4 16-6 15-8 14-10 14-9 10-13 13-14 11-16 11-28 17-21 10-16 6-19 5-16 3-11 1h-12l-15-2-12-5-10-6-10-9-7-14v-3l6 2 8 5 21 5h32l17-3 35-10 15-6 20-10 27-16 12-9 14-12 8-9 7-12 6-16 1-5 1-18-2-16-5-12-9-10-12-6-9-3-6-1v-2l2-1-1-3h-23l-26-2-11 1-26 8-9 4-15 9-7 5-17 7-11 4-9 5-10 8-14 12-8 6-14 14-6 8-6 5-9 11-8 10-7 10-6 8-7 10-6 10-5 13-7 12-4 10-5 8-6 15-7 11-11 15-4 10-4 18-13 31-4 10-5 23-4 11-4 13-11 30-5 12-4 14-1 11 1 2-3-1 1-14 4-16 8-18 7-21 4-11 1-4 3-9 4-20 2-9 4-8 7-16 5-15 3-11 5-13 8-11h2v-3l2-1 6-11 9-20 7-16 10-19 4-8 6-9 3-5 5-8h2l1-5 3-1 2-5 4-4 3-6 3-2 3-7 10-10 10-13 8-9 8-7 5-6v-5l6-7 8-7 5-5 8-7 7-6h2l1-3 11-6 9-4 12-5 20-8 22-7 14-3 13-3zm-144 205 1 5 8 7 7 5 2-1-2-5-15-11z" fill="#F0C088"/>
<path transform="translate(126,482)" d="m0 0 5 2 6 11 4 6 11 7 8 5 8 4 13 4 24 3h15l8-1 5 3-1 13-2 11-6 23-5 16-6 15-1 7-2 2-1 8-3 7-5 16-6 12-5 14-2 13-1 7h-2l1 3-2 5h-2l-3 9-5 16-1 6h-2v5l-3 7h-2l-2 7h-2v3l-3 3-2 7-2 1-3 9-8 23-8 16-3 5-6 5-6 8-4 13-2 5-6 5-7 8-6 3h-2l-1 3h-2v-3h2l1-8-7 10-1 6 7-2-2 4-3 4-2 4-2-3-5 7 3 3-4 2-5-5-2-6-2-1h-9l-1-6 6-9 3-7 8-9 11-16 12-19 9-15 10-19 12-26 11-29 10-27 7-19 6-20 10-30 3-10 1-13h2l2-5v-3l-2-5h-2l-4-16-8-14-1-5 1-3-6-2-8-6-15-14-11-11-5-10-2-7v-12l3-6zm39 67m3 1v5h2l4 6 1-2-5-9zm7 11 1 2zm1 3v3l3 7 2 7 1-4-4-12zm-2 3 1 2 1-2zm8 15 1 2zm1 6 1 2z" fill="#F1C088"/>
<path transform="translate(2026,264)" d="m0 0 6 2 5 5 3 7v12l-8 27-10 27-10 22-11 30-12 36-9 25-12 29-9 17-10 18-14 25-14 24-14 26-10 20-12 21-12 20-14 23-12 19-14 22-14 21-12 15-7 9-12 13-7 7-8 6 1-5v-3l-1-3-2-1 1-6 6-8h2l2-4 7-8 9-14 2-4h2l2-5 6-7h2l2-5 5-5 6-7 4-10 11-21 6-8 4-4 11-20 4-7 8-16 9-16 13-23 14-26 10-18 17-35 8-16 5-14 5-10 3-12 3-17 6-17 6-12 5-15 4-4 8-17 4-10 2-3h2l2-5 3-4h2l2-5 3-5 2-11-7 1-7 3-6 9-3 4-7 19-13 26-8 17-7 22v11l-6 17-7 11-11 17-5 8-15 33-17 35-10 20-12 22-13 22-6 8-8 11-3 6-3 10-7 16-11 16-8 11-4 8-7 9-9 11-10 15-6 5-4 6-7 6-9 14-10 9-5 5-22 24-8 8h-2v2l-8 7-14 12-9 9-11 7-15 12-17 11-5 4-2-1 8-7 10-7 9-7 7-5 4-4 9-7 9-9 8-7 5-4 1-2h2l1-3 11-9 7-7h2l2-4 4-2 2-5h2l2-4 6-5 5-5 4-2 2-5 6-7h2l2-4 7-11 6-4 4-7 2-1 1-4h2l1-4 6-8 5-5 4-5 3-3 3-4 4-5 3-7h2v-3h2v-3h2l2-6 5-6 1-4 2-2 4-9h2l1-5 4-11 2-5h2v-3l2-1 1-3 4-4 6-11 6-7 13-26 5-12 10-18 8-15 10-21 3-9 8-17h2l2-6 5-9 5-4 10-17 4-6 2-10 2-2-1-8h2l1-8 3-12 2-3 2-8 8-19 9-16 6-12 5-13 10-15 9-14 7-14 5-5 2-4h2l3-12-3-5h-5l-1-3z" fill="#F0C088"/>
<path transform="translate(1327,131)" d="m0 0 1 2h2l1 4h7l5 2 1 3-4 14-3 12-9 11-2 7h-2l-2 6-5 11-4 11-11 26-3 9h-2l-1 5-1 4-3 3-10 23-6 16-6 13-5 16-5 21v9l-2 6-4 19-1 8-1 4h-2l1 6-1 3-2 7-1 5-2 3-1 4h-2l1 4-1 3h-2l1 3-2 6-2 9h-2v6l-4 3-15 3-19 4-4 1-1 3v7l4 5 8 3 16 4 6 7 1 8-2 3h-2l-2 10-5 15-4-1-5-12-10-5-10-3-9-8-8-15v-16l2-8 8-11 6-9h4l1 2 3-2 1 3 8-16 8-15 6-15 4-4 4-11 1-10-2-4 7-14 1-6-1-1v-9l6-13 5-20 11-32 8-19 8-20 9-20 13-29 11-22 8-13 12-18h3zm-109 271m-1 2 1 2zm-1 2 1 2z" fill="#F1C088"/>
<path transform="translate(519,415)" d="m0 0h9l5 3 3 5-1 6-7 24-8 16-8 14-8 19-12 31-11 30-9 21-5 10-8 24-2 12-3 10v17l4 10 3 4 9 1 6 2 2 4-5 4-5 3h-9l-2 5-7 8-11 9-10 6-4 2h-6l-8 5-6 2h-6l-1-4v-11l3-20 5-15 5-13 8-28 5-24 4-12 4-16 16-35 10-17 7-16 4-8 4-13 7-14 3-14 4-12v-7l-6-2-3-8 4-4 12-5 10-4z" fill="#FEFDEF"/>
<path transform="translate(386,164)" d="m0 0 1 3 9-3h5l2 13-5 6-4 9-3 3-3 4h-2l-1 4-5 3-3 6-3 10-8 15-4 9-8 13-6 14-11 14-7 16-9 15-9 12-5 11-10 20-3 8-8 15-7 18-2 6-2 10-2 5-3 1-6 10-5 11-6 21-5 8-3 2h-4l-1 2-4-1-1 2-16 1-9 2-26 2h-11l-5-5-6-9-2-6 1 15 10 4v1l-10-1-6-4-3-9v-6l2-3 16-2 13-4 8-1 4-3 5-2h3v2l5-2 4-1v-3l9-4 9-7 7-12 15-35 12-29 8-16 10-19 7-10 10-19 10-17 12-22 8-16 14-24 15-23 12-17 10-9z" fill="#F1C088"/>
<path transform="translate(1785,325)" d="m0 0 8 1 1 4-4 9-12 22-15 31-10 15-11 24-5 12-10 22-7 21-5 23v12l2 9 6 11 13 7 7 4-1 4-6 2-9 2h-37l-16-7-5-4-7-13-2-4v-16l1-15 3-12 12-25 8-15 3-8 9-11 6-10 5-12 2-5 2-10-1-9-2-4 1-5 2-4 9-1 18-11 13-11 15-10 16-12z" fill="#FEFDEF"/>
<path transform="translate(701,394)" d="m0 0h11l3 3 2 6-1 16-3 14-7 20-8 25-1 6v19l3 3 2 1-1 5-10 17-5 8-14 32-3 12-8 27-5 18-10 24-5 8-9 6-5 5-5 3-5 2h-6l-2-1-8 2-2-4 1-10 4-10 9-20 7-20 4-10 3-8 4-16 5-23 5-17 9-27 5-12 5-18 4-17v-9l-5-10-4-4v-6l7-8 6-5 7-8 12-11 8-6z" fill="#FEFDEF"/>
<path transform="translate(1032,377)" d="m0 0h28l9 3 5 4 3 8 3 16v3l-2 6h-2l-1 6-4 12-4 7-6 5-4 9-2 3-5 3-5 10-4 4-7 4-3 5-9 7-9 5-4 7-7 1-10 1-16 5-6 4-13 5-1 1h-12-3l-5 1-9 2-5-2-2-4h-2l-3-5 1-9 1-8-2-3 2-9 5-9 3-15 7-8 3-6 8-13 5-7 7-5 5-8 11-6 9-8 14-9 19-8 8-3zm-6 24-13 5-18 11-21 14-7 7-7 6-7 8-7 10-11 24 1 2 1-3 3-1 4-4-1 9 13-2 23-5 16-8 8-6 9-7 6-7 5-12v-5l-1-4 1-4 3 1 2-6 1-11v-12zm-2 48-4 9-5 10 4 2 6-7 1-9-1-5zm-90 40m-1 3 1 2z" fill="#F0C088"/>
<path transform="translate(867,419)" d="m0 0 4 1 5 7 1 4-1 20-6 5-5 10-5 3h-13l-14 6-3-7-10-3h-16l-14 4-13 7-10 8-10 9-13 16-14 22-8 14-9 19-11 30-15 33-11 26-8 15-7 9-5 6-11 8-10 5-21 6-10 2h-11l-6-4-3-5v-6l9 1 5-3 9-4 16-8 16-9 7-6 5-10 3-3 5-13 4-20 8-24 2-8 6-18 3-7 3-10 7-9 11-16 9-10 5-9 8-5 9-7 3-7 4-6 8-3 4-5h2l1-3 9-6 8-4 7-4 16-6 3-2 10-3h24l2 1h7l10-4 5-5 4-8z" fill="#D2A269"/>
<path transform="translate(624,32)" d="m0 0 18 1 14 1h23l2 4-3 2-31 1-19 3-28 7-21 7-17 8-17 12-14 11-12 11-8 7-4 5-8 7-8 8-11 16-10 14-8 10-7 9h-2l-14 27-15 30-9 20-11 24-10 23-11 27-5 12-6 16-4 6-2 16-4 8-7 15-3 9-2 16 1 11 4 3 10 1 1 4-1 1-9 1-4 1v2l-8 4-13 4h-10l-2-2 1-11 6-19 8-20 9-25 4-13 3-11 3-15 7-17 8-19 4-13 4-16 6-10 8-10 7-12 6-15 5-8 4-10 6-10 5-13 10-16 8-10 4-6 6-8 10-13 10-11h2l2-4 11-12 10-10 11-8 11-10 10-7 13-6 14-5 12-6 5-4 15-9 15-5 17-5z" fill="#D2A269"/>
<path transform="translate(941,418)" d="m0 0h4v7l-10 15-9 14-4 7-3 13-6 12v8l1 5-2 8v8l6 7 3 6-1 6-1 2v6l7 11 7 7 11 14 10 9 16 8 11 4 9 2h13l6 1h10l21-4 11 1 1 4-12 7-14 4-5 2-9 1h-8l-23 4-9 1h-20l-14-1-18-6-17-9-8-8-3-4v-2l-5-2-6-9-4-9-7-11-4-16-7-14v-8l10-11 5-9 9-20 9-11 7-12 7-7 7-8 7-6 8-3 3-5 6-7z" fill="#FEFEF0"/>
<path transform="translate(1223,506)" d="m0 0 1 3-3 14-2 28-6 27-4 15-4 13-9 16-2 10-1 3-2 9h-2l1 5-3 12-1 7-3 8-9 17-5 9-3 10-2 12-10 21-6 12-5 9-3 7-2 8-5 9-5 4-7 4-5 9-5 1-2-4-10-2-3-3 2-8 8-16 11-21 4-10h2l11-23 13-30 10-22 6-19-2 5-1-4-4 16-7 17-4 7-1-3 14-40 7-31 7-25 3-7 1 3v1-7l4-16 3-18 1-14v-15l1-11 9 3 9 4 5 3 5 12h3l3-11zm-50 92 1 4z" fill="#F1C088"/>
<path transform="translate(1682,80)" d="m0 0 9 1 2 2-2 14-5 12-18 34-22 38-8 16-10 23-5 21-15 51-9 35-12 45-2 3 1-8 3-15v-9l8-30 1 4 5-16 2-9-1-4 11-35 7-21v-2l-8 16-12 36-13 42-9 36-4 24 2-2v11l-3 15-2-2-2 8-3 23-1 2-1 15 1 16-5 2-7-3-5 2-2-6-1-11 1-14 4-20 2-11 5-24 4-15 6-25-1-5-2-1-1-5 1-13 4-15 5-14 2-5h2l1-5 2-3 2-6 1-7 3-5 2-12 2-5 1-9 4-16 1-3 5-5 2-4 3-3 6-8 4-8v-14l5-10 12-11 6-9 6-8 5-15 5-10v-11l2-7 2-4 17-8zm-58 146m-1 1 1 2zm-27 95 1 2zm-22 67 1 3zm-1 6 1 3z" fill="#F0C088"/>
<path transform="translate(1606,178)" d="m0 0h3l2 5-1 5-4 2v8l-4 9h-2l-1 5h-2l-6 15-3 17-5 13-1 17-3 7-6 12-7 19-5 29-11 44-7 37-3 11-2 27-1 17v31l1 19-4 4-9 3-13 5-7 2-9 2-5-1v-2l-3-1-1-3v-13l4-17 5-15 10-28 4-7 4-20 3-7 1-18 1-1v-15l7-21 6-15 12-42 3-4 1-8 8-20 2-6-3-1 1-7 4-6 3-10 4-8 2-6 6-9 6-13 5-10 9-12 2-6 6-10z" fill="#FEFDEF"/>
<path transform="translate(1866,497)" d="m0 0v3l-5 7-5 10-3 5-9 20-5 14-8 10-12 20-1 6-5 8-4 7-3 10-5 11v3h-2l-1 6-3 4-3 7h-2l1 3h-2l-2 8h-2l-2 5-8 14h-2l-2 7h-2l-3 9-3 5h-2l-2 6-6 10-6 7-3 7-5 6-4 7-8 15-12 18-9 9-2 4h-2l-2 4-5 5h-2l-1 3h-2l-1 3-2 1-1 3h-2l-2 4-9 3-16 1-10 8-5 3-2 5-7 6-7 2v-3l18-18 9-11 9-10 7-8 11-17 12-17 8-10 8-12 12-15 11-17 10-14 12-23 8-19 3-14 5-24 5-18h2l3-9 4-2-2 9-11 34v4l5-10 13-35 2-5 3 1 8-9 3-2 8-1 3 1-1 12 7-1 2-6h2l2-5 8-14 6-11 8-16 11-20zm-98 129 1 2z" fill="#F1C088"/>
<path transform="translate(1659,90)" d="m0 0 1 3-2 10v8l-5 10-5 15-7 9-6 9-12 12-4 9v13l-6 11-4 5-6 9-5 6-3 12v5l-1 2-2 8-3 13-2 6-1 1-1 7-4 9-6 13-7 21-3 18-2 14-5 22-3 11-4 24-5 25-3 24-2 24v42l1 9-2 2-13 3-8 4-15 6-8 2h-7l-6-4-1-2 1-16 6-21 5-18 2-5 6-21 3-7 4-13 2-6 1-14 3-10 1-14 4-15v-2h2l-1-4 1-3h2l6-27 5-12 9-27 4-17 3-11 3-10 4-8 2-6 3-5 3-9 3-5 2-7 2-4-1-4-10 6h-6l-7-4h-3l10-19 7-11 14-19 12-14 11-14 12-13 17-17 7-8 8-7zm-53 88-5 6-5 8-2 7-8 10-5 10-8 17-5 6-3 9-4 9-2 7-4 6v5l3 1-6 16-4 10-1 8-3 4-12 42-8 20-5 16v15l-1 1-1 18-3 7-4 20-4 7-10 28-6 19-3 13v13l2 4h2v2l5 1 9-2 7-2 13-5 9-3 4-4-1-19v-31l2-35 2-13 4-16 3-17 5-24 5-19 5-23 3-18 8-21 5-10 3-7 1-17 5-13 3-17 6-15h2l1-5 3-1 3-8v-8l4-2 1-5-2-5z" fill="#FDD6A2"/>
<path transform="translate(830,521)" d="m0 0h7l12 6 7 2 6 10 2 9 1 12 7 11 10 17 9 9v2l4 2 5 4v2l5 2 9 4 7 4 18 5 13 1h26l14-3 36-3 21-8 12-6 17-11 14-10 13-10 8-7 4-2 2-4 4-2 1 2v8l-6 10-9 11-13 13-15 11-19 11-21 10-26 9-20 3-11 1h-34l-16-2-3 1-4-2-1 2-10-5-4-1-5-2-10-6-11-9-10-9-18-22-9-13-8-14-3-4-7-21-2-10z" fill="#D2A269"/>
<path transform="translate(1432,84)" d="m0 0h6l5 2-6 7-12 11-11 23-5 5-7 5-9 15-6 18-2 12h-2l-3 9-4 28-9 29-3 8-12 38-8 26-2 7-6 24-3 19v26l4 9-1 5-6 4-1 2-1 12-5 9-7 4-8 3-6-1-3-5 2-21 3-23 6-25 4-13 9-31 12-47 10-33 5-14 2-9 4-9 5-16 13-38 17-34 8-13 7-10 7-9 4-3 9-3z" fill="#D2A269"/>
<path transform="translate(471,445)" d="m0 0h10l1 2-1 10-4 14-6 15-6 18-11 19-3 7-2 5-6 10-9 22-4 10-2 7-2 15-5 15-4 17-2 9h-2l-1 7-4 10-2 3v3h-2l1 4-1 3h-2l1 3h-2l1 3-2 4-3 11-3 7-1 7v12h3l1 8 8-2 10-3 17-7 11-7-2 4-13 9-13 5-10 4-6 2h-14l-4 1-4-16-1-9v-11l2-28 7-40 7-20 12-31 10-30 8-35 1-7 4 1 14-5 5 2 2 7-2 8-6 4-2 3v5l6-1 6-13 2-3h2l2-4 6-7 2-15 8-10 4-10 4-14v-3h-7l-35 12-21 9-14 7-17 7-17 4-20 6-29 8-9 4h-2l-2 5-8 24-3 11-14 43-9 24-5 15-6 21-2 8-1 11-6 15-7 10-4 1-2 4-2 1 2-5 6-12 5-11 7-23 5-16 11-33 5-13 10-30 7-24 3-10 6-14 8-7h5v-2l14-3 10-4 14-3 10-4 17-4 21-8 16-8 26-10h3l1-2 8-1 1-2z" fill="#F1C088"/>
<path transform="translate(1951,318)" d="m0 0 1 2 3 1 2 4 4 3 2 12-2 7-9 10-2-2-9 15-16 21-3 4-6 7-3 1-2 4-5 4-5 7-5 5-10 9-7 8-5 9-10 13-15 12-1 3-8 6-5 4-3 8h-3l-4 7h-2l-2 4-3 5v2l-9 3-7 5-9 2-3 2-5-1 2-2 3-1 3-8 6-5 5-5 4-5-1-4 8-13 10-15 8-14 8-12 10-13 12-14 7-8 21-21 10-13 13-15 11-12 9-10 8-7z" fill="#F1C088"/>
<path transform="translate(1864,487)" d="m0 0 4 1-2 9-9 14-12 23-4 8-6 11-8 14-2 3h-2l-1 4-4 4-5-1 1-9 1-3-11 1-7 6-5 5-1-4 1-4-4 3h-2l-2 6h-2l-1 2-3 4-2 5-1-3 3-9 1-2-30 10-23 5-8 1h-20l-3-1-1 1-8-1-13-4-13-8-5-4-7-10-6-16-1-4v-11l5-1 4 5 2 4 8 5 4 6 5 4 11 6 14 5 25 1 13-1 20-4 11-4 6-3 5-1 8-4 11-6 19-12 26-26 9-6 13-12z" fill="#D2A269"/>
<path transform="translate(458,122)" d="m0 0h4l-2 4-6 8h-2l-2 8-5 5-10 14-6 11-3 5-4 4-7 11-8 16-7 18-2 1 1-5 10-25 1-6-5 2-11 13-8 13-9 19-10 17-9 19-7 11-8 13-8 16-12 17-6 9-5 10-11 24-12 25-5 11-4 18-9 23-6 16-4 8-4 5-12 6-31 3-21 2h-9l-20 3-5 2h-3v2h-2v5l5 5 11 5h3v2l5-1 1 1h27l15-2h7l11 8 4 6v9l-2 9-6 13-4 14-16 49-3 12-1 18-5 13-7 12-8 25-6 21-5 13-6 14-7 21-14 27-10 15-7 12-6 12-7 11-8 8-9 13-4 8-1 3 7-3 10-9 4-3h2v-2h2l-2 4-11 10-5 5-5 6-8 7-4 4-13 10-9 7-2-1 1-5 7-10 7-11 8-9 7-8 11-12 9-11 7-11 9-19 5-8 9-20 8-20 14-26 8-16 7-21 6-22 2-9 6-16 6-15 8-25 7-18 12-38 5-30 1-10-7-2-4-2-7 1h-22l-19-2-13-5-8-4-7-6-3-5 1-5 7-4 20-3 15-2 23-2 25-3 16-5 5-8 5-13 8-16 4-9 6-26 6-14 8-15 6-13 5-12 6-15 10-12 6-10 9-18 11-15 9-16 7-16 9-17 3-9 3-5 3-6 7-8 7-12 10-13 7-11 11-13 13-13 8-11 8-5z" fill="#FEFBE0"/>
<path transform="translate(1142,408)" d="m0 0 2 4v13l-5 15-7 11-12 14-9 12-10 10-5 6-12 9-10 7-17 10-26 13-21 8-16 4v2l4-1 2 1-2 5-4 5-2 1-11 1-2-1h-5l-1 4-3 3 2 6 4 4v2h2l1 4-2 4h-9l-12-6-10-9-11-12-8-7-3-6 1-5 10-3 15-3 21-3 14-4 16-3 4-2 8-2 11-4 12-7 16-8 23-14 5-5 9-10 8-10 5-3 4-6 2-9 7-11 2-2h3l4 6h5l1 1 5-2 3-3v-8l3-11z" fill="#D2A26A"/>
<path transform="translate(576,266)" d="m0 0h19l8 2 5 4 3 7v13h-11l-10 5-11 9-8 7-13 21-10 10-7 8-8 7-11 4-9 1-1-9-2 4-2 23-3 4-10 1 6-14 4-20 4-36 4-17 5-12 8-7 10-5 9-1v-2l13-4z" fill="#FDD5A1"/>
<path transform="translate(343,520)" d="m0 0h5l1 2-8 7-7 11-13 25-8 16-6 16-14 41-22 66-10 26-8 17-12 20-23 34-11 15-7 9-12 14-14 17-7 8-7 7-7 8-13 13v-3l4-5h-3l-1-3 4-5 5-5 4-7 1-2h2l2-5 5-8 8-6 8-4 5-5 7-11 3-5 9-19 8-19 12-22 8-15 4-5 9-19 7-18 1-2 4 1 2-5 7-14 3-5v-4l-3-1 4-20 8-16 3-8 7-16 6-19 6-12 5-17 6-14 4-7 3-3 7-4 3-1-1 6h2l2-5 11-12 2-2zm-19 22m-1 2m-6 15m-1 2 1 3zm-1 3-1 6 2-2zm-2 7 1 2z" fill="#F0C088"/>
<path transform="translate(1398,95)" d="m0 0 3 1-2 5-10 17-10 19-8 18-8 15-1 8-3 8-3 7v7l-4 16-4 8-8 27-5 17-8 20-5 19-4 15-3 6-1-4 4-11 6-25 10-27 9-28 4-14 5-17 2-12 5-10 2-11 9-17 4-12v-7l-5 1-5 5-7 11-8 9-13 26-4 18-8 18-10 19-11 27-12 25-5 11-6 22-4 18-3 16-8 19-2 9-1 16-4 14-8 19-5 10-7 18-10 12-1 5 5 9 2 3-1 10-5 17-1 6v17l-6 29-5 27-6 25-6 19-4 16-9 24-5 13-10 20-6 14-5 10-5 13-7 10-3 9 2 3h7l13-18 8-13 2 1-10 16-11 16-10 14-4 4-5 2-3 4h-4l-1-5 6-12 4-12 1-7 10-16 6-15 5-8 2-9 3-10 11-20 4-9 4-13 3-12 5-16 7-22 6-18 4-16 5-22 3-16 1-16 4-18 3-8v-6l-5-5-8-5-13-4-5-6 3-6 21-7 3-2 7-1 3-5 7-19 6-15 4-14 5-27 5-18v-17l5-19 8-16 11-28 10-23 5-11 4-10 5-13 4-9 4-12 8-16 7-13 6-4 4-9 2-6 3-4 8-17 2-7 8-3 7-8 6-4 1-2h2l2-5 7-8z" fill="#FFFBE0"/>
<path transform="translate(659,457)" d="m0 0h2l-1 9-5 17-1 6-4 13-8 17-3 18-2 1-2 11-3 9-1 7-2 7-2 11-2 7-2 11-3 7-5 13-5 11-2 2-6 7-3 7v4h-2l-3 14v12l2 3 4-1 19-6 12-7 5-3 6-4 7-12 2-1 3-6 1-8 4-6h1v7l-6 15-3 1-2 7-7 8-17 10-16 8-9 4-6 3-5 1-5-2-1 3-2-12 1-23 6-36 6-21 8-27 12-44 5-18v-5h2l1-7-4-19h2v-5l8-1 8-3 5-1 3 6 3 1 5-4 4-10z" fill="#F0C088"/>
<path transform="translate(1056,326)" d="m0 0h28l15 3 12 5 10 7 5 4 9 13 5 14 4 19 1 10v18h-1l-2-9-1 6-2 8v9l-5 4-5 1-6-2-3-4v-2l-4 2-7 11-2 9-6 8-5 3-11 14-7 8-16 10-21 12-16 8-14 6-8 2-5 2-13 2-14 4-21 3-23 5-2 1 1 9-2-1-2-9 3-1v-2l4-2 36-8 2-1 15-2 18-4 7-3 13-4 9-5 7-4 11-5 15-8 10-7 10-9 5-6 7-9 4-4h2v-3h2v-4h2l1-6 5-9 3-7 2-11 4-7 1-3 1-11 1-2v-14l-3-10v-7l-3-5-4-3-12-3-5-1h-17l-11 2-4 2-20 1-9 2-11 5-12 3-2 4-3 2h-7l-4-5-1-3-3-1v-5l10-6 4-2 3-3 25-12 14-5z" fill="#F1C088"/>
<path transform="translate(519,411)" d="m0 0h15l5 3 2 2v7l-4 10-2 9-3 10h-2l1 3-4 7-8 16-9 17-5 15-3 11-7 19-8 18-11 26-5 13-6 13-2 5-1 6h-2l1 3-1 1v5l-2 3-1 5v22l4 9 7-1 2-1h15l5 3-1 4-11 6-8 6-9 3-6 5-5 6-8 7-10 7-25 10-10 1-2-6-3-2v-12l1-7 4-10v-3h2l-1-3 2-5 3-8 1-6 2-5 1-2 2-5 3-9 2-5 4-13 4-17 4-12 1-11 5-16 6-13 5-12 7-11 1-4 7-14 7-12 5-16 6-15 4-14 1-10v-2l-10 1-10 4-6 3-9 3-26 10-16 8-21 8-17 4-10 4-18 4-7 3-13 2v2l-6 2-6 5-6 14-4 13-7 24-12 36-6 16-5 16-6 17-7 24-5 13-5 8h-2l1-6 6-14 8-28 9-29 10-26 12-36 9-32 6-14 6-5 11-4 37-10 35-11 21-9 15-7 16-6 21-9h2v-5l-1-1-9 1-17 5-13 2-23 7-45 9-6 1h-12l-16-2v-2l20-2 5-1 27-6 14-3 11-1h2l1-2 5-1h5v-3l4-1-1 2 6-2 13-3v-1l7-1v3h3v-2l-2-1 4 1 2 1-1-3 14-1 14-2 10-6 16-6 11-4zm0 4-15 5-10 4-12 5-4 4 3 8 6 2v7l-5 15-2 11-7 14-5 15-4 9-8 17-10 17-14 31-4 16-6 20-3 16-10 34-6 15-4 18-1 9v11l1 4 9-1 10-5 4-1 5-1 11-6 10-9 6-5 5-7v-2h9l9-6v-4l-5-3h-8l-4-2-4-7-2-6v-17l8-32 7-19 8-16 14-37 10-27 9-21 8-16 6-10 5-12 6-21 1-6-4-6-4-2z" fill="#FDD5A1"/>
<path transform="translate(1077,355)" d="m0 0 19 1 11 5 4 5 3 7 2 7 1 5-1 22-3 6-3 14-12 23-12 16-9 8-11 9-5 3-10 5-10 6h-6l-2-4 7-10 5-3 6-10 7-7 3-5 3-3 7-11 3-9 6-15 3-7 1-9-4-12-5-10-8-6-3-1-43-1-2-4 3-4 21-7 4-1 20-1z" fill="#FEFEF0"/>
<path transform="translate(1033,380)" d="m0 0h33l7 6 2 5 2 18-3 7-3 6-3 10-3 2-4-1-3-6-1-14h-14l-7 5-5 2-1-7h-2l1-12-16 6-18 11-21 14-7 7-6 5-7 8-7 10-11 24-3 8h2v-2h3l1 7 5 3 2 5-2 4-13 1-6 4-4 1-4-5-1-4 3-6v-7l-1-5 4-10 2-4 2-14 5-5 16-22 1-2h2l1-3 5-5 10-9 9-6 9-8 11-7 16-7 10-5z" fill="#D2A269"/>
<path transform="translate(1989,322)" d="m0 0h3l-2 9-16 32-7 13-1-2 8-15 2-7-6 1-13 11-5 5-8 11-10 13-8 11-15 13-4 5-8 16-14 14-7 11-1 5 7 6 1 2-1 9-8 15-12 19-6 10-4 9-4 13-8 18-9 12-16 32-5 13-4 17-4 13-7 9-8 8-6 10-8 15-8 12-6 11-20 30-5 10-14 21-3 9 8-4 7-6 8-7 7-8 10-13 7-8 3-5 6-6 1-3h2l2-4 1-3 3-3 6-8 6-9 11-14 11-18 5-9 7-12 4-13 11-11 7-13 3-5h2l2-4v3l-7 11-6 11-8 8-3 6-3 10-10 18-12 20-14 19-11 13-7 10-6 8h-2l-2 4-8 12-14 16-12 12-8 7-7 8-3 3h-2l-2 4-5 4-5 5-8 7-5 2-2 5-8 8-2 4-16 8-3 4-4 1-2 6-2 1-2-1-1 5-4 1-2-7 3-5 4-5 7-5 6-7 12-12 7-8 21-21 6-7 5-5 11-16 8-9 6-10 11-18 12-23 12-22 9-15 9-12 6-10 7-18 6-16 6-12 10-16 6-11 7-7 7-14 4-11 4-14 8-15 8-13 7-16 2-9h-2l-2-3-9 1-5 3h-5l2-5 11-12 3-4h2l2-4 8-11 5-5 9-10 8-10 2-6 3-3 6-2 6-10 10-13 11-14 12-13 14-15 9-11 9-9z" fill="#FEFBE0"/>
<path transform="translate(550,428)" d="m0 0 4 1-1 8-6 31-11 44-13 32-5 12-5 1-10 21-8 23-2 11-3 5-7-1-5 2-5 14-3 21-4 13h-3l-2-4-2-15 1-8 3-8 3-16 5-10 7-21 8-15 6-14 5-12 6-16 7-25 7-17 9-15 7-10 4-10 6-16 5-5z" fill="#D2A26A"/>
<path transform="translate(1606,178)" d="m0 0h3l2 5-1 5-4 2v8l-4 9h-2l-1 5h-2l-6 15-3 17-5 13-1 17-3 7-6 12-7 19-5 29-11 44-7 37-3 11-2 27-1 17v31l1 19-4 4-8 1 3-2 4-2 1-2-1-14-1-32 1-6 1-17 2-21 5-22 4-22 4-21 2-6 1-9v-12l4-11 1-11h-2l-3 11-3 14-8 16-9 19-6 20-3 12-2 15-5 13-2 11-2 5-3 6-4 16-9 24-4 19-2 1v7l2 2 2 5 18-3v-1h5l5-1 3 1-13 5-7 2-9 2-5-1v-2l-3-1-1-3v-13l4-17 5-15 10-28 4-7 4-20 3-7 1-18 1-1v-15l7-21 6-15 12-42 3-4 1-8 8-20 2-6-3-1 1-7 4-6 3-10 4-8 2-6 6-9 6-13 5-10 9-12 2-6 6-10z" fill="#FEFBE0"/>
<path transform="translate(1811,331)" d="m0 0 5 2-2 10-10 23-11 22-10 19-16 31-9 21-8 27-1 3v8l1 4v7l-7-2-5 1-1 18-2 9-3 1-9-4-3-6v-21l4-15 8-16 11-25 9-27 8-16 10-16 6-14 7-16 12-18 9-7z" fill="#D2A269"/>
<path transform="translate(1600,253)" d="m0 0 6 1 2 9-14 44-10 36-6 27-2 14 2-2v11l-3 15-2-2-2 8-3 23-1 2-1 15 1 16-5 2-7-3-5 2-2-6-1-11 1-14 4-20 2-11 5-24 4-15 6-25-1-5-2-1v-11l4-18 8-16 7-11 4-10 2-11 6-6h2zm-26 136 1 3zm-1 6 1 3z" fill="#D2A36A"/>
<path transform="translate(516,657)" d="m0 0h2v7l-4 8-10 13-9 11-9 10-8 8-11 9-13 9-17 9-13 4-10 2h-17l-8-6-7-8 1-3 3-1h13l12-4 11-5 9-4 11-8 7-4 5-5 2-4 9-6 9-3 8-4 13-8 8-5 5-5 6-4z" fill="#D2A269"/>
<path transform="translate(1565,334)" d="m0 0h1v5l4 2-1 9-5 20-4 15-5 24-3 17-3 14-1 15 2 15 6-2 6 3 5-1-2-19 1-12 2 4 3-24 3-4 2-7 2-2-2 17-3 28v59l2 22-23 2-7 1-19 1 2-3 12-3 1-1-1-13v-38l3-34 6-36 3-14 4-22 4-15 3-13 1-9z" fill="#F0C088"/>
<path transform="translate(1537,698)" d="m0 0h14l8 1 12-1v2l-4 2-45 5-26 5-33 11-26 11-21 11-17 12-17 13-9 7-13 11-5 5h-2l-2 4-4 2-2 4-9 10-9 13-9 16-4 8h-2l-1-9 2-10 3-2 3-11 6-9 1-3h2l2-5 9-10 5-5 4-6h2l2-4 11-9 9-7 4-2v-2l15-10 14-7 10-4 5-3 9-5 9-4 16-8 16-5 7-2 10-2 7-3h9l8-2 6-2h16z" fill="#D2A36A"/>
<path transform="translate(123,507)" d="m0 0 20 2 22 10 10 4 4 1 18 1 7 1h25l2 1-1 13-2 10-4 11-4 6h-2l-1 5-4-2-5-7-3-8-11-5-17-2-8 1-10 1-11-10-8-7-14-14-4-7z" fill="#D2A269"/>
<path transform="translate(1412,127)" d="m0 0 1 3-4 14-4 16-10 32-8 24-14 43-7 19-1-3 6-19-11 29-5 16v2l2-2-1 8-10 40-1 15-1 14-3 9v9l8 6 13 6v3l3 6-9-1-12-5-8-6-4-9v-26l3-19 6-24 2-1v-6l2-4 2-9 14-44 4-14 3-3 9-29-1-5 3-21 4-9h2l2-16 5-14 6-10 5-7 7-5zm-22 51m-1 3m-1 2 1 2zm-1 3 1 2zm-1 3 1 2zm-1 2 1 3zm-1 3 1 2zm-1 3 1 2zm-1 2 1 3zm-1 3 1 3zm-1 3 1 3zm-1 3-1 6 2-3zm2 4m-3 9m-1 3 1 2zm-1 3 1 2zm-1 2 1 3zm-1 4 1 2zm-1 2-1 7 2-3zm-2 7 1 3zm-1 4m3 2 1 2zm-1 3 1 3zm-7 1 1 2zm-12 54 1 2zm-7 7m4 5 1 2zm-2 6 1 4zm-1 4-4 12-1 4-1 11 2-1 5-21v-5zm-6 2 1 2z" fill="#E9D0B1"/>
<path transform="translate(876,595)" d="m0 0 7 2 11 9 1 3h2l4 6 12 7 18 3 7 2 24 1h13l10 1 14-2 5-1h24l7-2 6-4h14l3 3-5 3-3 3-20 8-15 5-20 3-11 1h-34l-8-2-16-3-13-5-8-4-9-5-10-9-12-12-5-7v-2z" fill="#B7864E"/>
<path transform="translate(1329,497)" d="m0 0 4 1-8 4-1 4-7 10-6 11-1-4-5 12-6 21-4 22-10 39-8 24-18 39-16 32-14 23-2 1 1-4-4-4v-7l4-11 8-11 4-5 5-10 5-7 8-17 3-7 6-19 2-9v-24l3-7 8-4 7-5h2l2-8-2-14-3-9 1-9 2-2 3-14 3-9 4-3h5l5-9 7-6z" fill="#F0C088"/>
<path transform="translate(710,384)" d="m0 0 8 1 4 3-1 2 2 1v15l-1 6h-2l1 3-2 7-4 19-3 15-5 7-6 14-2 8-1 19 9 3v5l-7 8-6 10-6 9-11 24-5 15-10 37-2 9-4 10-1 7-4 7h-2l-2 6-6 8-9 5-11 7-7 3-14 4-4 1-3-4v-12l3-12 2-3 1-5 4-8 4-5 5-7 1-5h2v-4h2l1-6 3-8 3-11 1-8 4-14v-5h2v-7l4-12 3-11 3-16 9-19 4-13 1-6 5-19-1-12-3-4v-2l-5-2-4-2v-6l8-7 6-7 4-4 3-1 4-4 7-6h2l1-3 2-1 5-9h5v-2l-2-1 5-1v2l12-3h7l-11-1v-1zm-9 10-8 3-10 9-14 13-4 5-8 7-2 3v6l6 7 3 7v9l-7 29-4 12-5 11-8 25-6 22-6 28-3 10-3 5-7 21-7 16-7 15-2 8 1 9 3 1 7-2 1 1h6l12-6 4-5 9-6 6-12 4-9 6-16 10-36 3-9 2-8 10-23 7-14 10-16 2-3v-4l-4-2-1-2v-19l4-16 11-31 3-11 2-15v-8l-3-8-2-1z" fill="#FDD5A1"/>
<path transform="translate(848,395)" d="m0 0h6l4 9 4 7-1 6-12 16-9 5h-7l-5-1h-17l-15 2-12 6-9 3-6 5h-7v-5l5-5 8-7 4-4 3-6 10-8 8-6 18-10 18-6h9z" fill="#FFFBE0"/>
<path transform="translate(941,418)" d="m0 0h4v7l-10 15-9 14-4 7-3 13-6 12v8l1 5-2 8v8l6 7 3 6-1 6-1 2v6l7 11 7 7 11 14 10 9 16 8 11 4 9 2h13l6 1h10l21-4 11 1 1 4-12 7-14 4-5 2-9 1h-8l-23 4-9 1h-20l-14-1-18-6-17-9-8-8-3-4v-2l-5-2-6-9-4-9-7-11-4-16-7-14v-8l10-11 5-9 9-20 9-11 7-12 7-7 7-8 7-6 8-3 3-5 6-7zm-16 21-8 4-7 6-9 12-7 8-7 10-5 11-4 11-7 12-7 9v7l4 8 4 13v6h2l-1 3h2v3h2v3h2v3h2v4h2l1 4 7 8 5 5 6 7 1 2h2l2 4 6 3 5 2 9 4 4 1 7 1 5 1h19l14-1 17-3 10-3 1-4-2-1-13-1-28-11-10-6-8-7-9-13-11-12-6-8-1-7 1-7-4-8-4-7 1-9 1-4v-14l3-7 5-12 3-12 7-13-1-4z" fill="#FEFBE0"/>
<path transform="translate(1690,92)" d="m0 0h1l-1 8-9 19-12 22-12 21-11 19-4 7h-2l-2 5-3 5-3 4-2 5-1 5-1 4-8 2-5 5-7 13h-6l-4 2 1-6 2-9 1-7 4-5 4-1 9-18 3-12 3-13 5-5 8-9 6-7h2v-2l6-4 5-8 8-10 5-5 4-5 7-6h2l2-5z" fill="#D2A26A"/>
<path transform="translate(600,291)" d="m0 0h9l1 5-5 6-9 7-9 10-6 9-12 17-9 16-7 12-4 8v9l-11-6-17 1-8 1-2-1v-16l1-5 10-2 11-4 10-9 12-13 4-5 11-18 7-7 12-9 6-4zm-49 79-7 7 1 2 6-5 1-4zm-13 12 4 1z" fill="#D2A269"/>
<path transform="translate(1077,355)" d="m0 0 19 1 11 5 4 5 3 7 2 7 1 5-1 22-3 6-3 14-12 23-12 16-9 8-11 9-5 3-10 5-10 6h-6l-2-4 7-10 5-3 6-10 7-7 3-5 3-3 7-11 3-9 6-15 3-7 1-9-4-12-5-10-8-6-3-1-43-1-2-4 3-4 21-7 4-1 20-1zm-9 9-4 2 1 5 8 7 5 5 8 19 1 7-5 15-5 16-3 8-10 14-9 12v6l4 2 7-3 12-10 10-8 9-15 6-12 4-11 2-13v-23l-2-10-7-6-16-6z" fill="#FFFBE0"/>
<path transform="translate(701,394)" d="m0 0h11l3 3 2 6-1 16-3 14-7 20-1-3 5-17-1-8-3-6-5-9-2-2h-8l-5 3h-2l-2 4-7 9-8 12-2 4 2 9v13l-4 16-4 20-3 9-5 10-4 14-2 14-1 16-3 13-10 23-5 13-9 37-3 15v4l11 1 6-3-2 4-7 4-5 2h-6l-2-1-8 2-2-4 1-10 4-10 9-20 7-20 4-10 3-8 4-16 5-23 5-17 9-27 5-12 5-18 4-17v-9l-5-10-4-4v-6l7-8 6-5 7-8 12-11 8-6z" fill="#FEFBE0"/>
<path transform="translate(576,266)" d="m0 0h19l8 2 5 4 3 7v13h-11l-10 5-11 9-8 7-13 21-10 10-7 8-8 7-11 4-9 1-1-14 4 1-1-4h2l1-3 2 13 7-1 3-1 2 1 4-2 7-8 14-18 7-11 10-12 9-7 3-3h2v-2l3-2 6-12v-4l-5-2-6 1-1 1h-5l-1 2-9-1v2l-9 3-6 4-11 4-6 11-5 7-7 15-5 8-3 5-3 3h-5l2-20 2-12 5-13 1-2-3 1 2-5 7-6 10-5 9-1v-2l13-4z" fill="#F1C088"/>
<path transform="translate(519,415)" d="m0 0h9l5 3 3 5-1 6-7 24-4 9-1-4 3-7 3-22-3-6h-12l-17 9-6 5-1 13-5 16-3 12-4 18-3 9-10 15-5 11-15 31-7 22-8 26-3 18-6 16-3 10-6 14-6 22v6l4 8v5l3-1 3-5h2l4 4 10-1 10-6 4-2v3l-8 7-13 7h-6l-8 5-6 2h-6l-1-4v-11l3-20 5-15 5-13 8-28 5-24 4-12 4-16 16-35 10-17 7-16 4-8 4-13 7-14 3-14 4-12v-7l-6-2-3-8 4-4 12-5 10-4z" fill="#FEFBE0"/>
<path transform="translate(1571,531)" d="m0 0 4 1v12l-10 5-15 6-7 4-25 7-20 3h-18l-7-8-1-6 36-12 20-8 17-1z" fill="#D2A269"/>
<path transform="translate(327,403)" d="m0 0 1 3-9 24-2 8v20l23 3h12l27-5 24-5 23-7 17-3 17-5h5l2 2-1 5-17 7-13 6-16 6-24 11-33 11-36 10-17 5-6 4-5 10-4 11-1-4 4-13 1-9 3-5 4-2 25-4 16-2 26-8 24-8 16-8 3-1v-4l-28 6-16 2-19 7-13 2-7-1-18-10-1-2v-20l5-18 6-15z" fill="#FFFBE0"/>
<path transform="translate(1455,53)" d="m0 0h14l1 4 3-3h8l3 1-2 5h-2l-1 6-6 5-15 8-14 9-5 4-2-1 4-4-3-2-9 1-8 4-7 3-9 11-12 20-10 19-10 21-12 37-2 6-1-4 6-19 5-17 8-20 5-11 2-1 1-5 8-16h2l2-6 4-7 5-5 3-4 4-8 3-4 3-7 6-5 1-5-1-4 10-3zm19 6-5 5 6-3z" fill="#F0C089"/>
<path transform="translate(1764,397)" d="m0 0 1 2-8 13-7 17-8 24-9 20-9 19-3 12v21l2 5 9 4h2l2-10 1-13 1-4 6-2 6 3-2-11v-6l4-4-1 5 1-1 3-7 2-1v23l7 11 1 8 5-2 1-2 4-2 5 1 1 4-7 12-11 7-10 4-14 1-4-3-6-5-8-8-3-6v-24l4-16 8-17 7-14 7-17 5-17 9-17z" fill="#F0C088"/>
<path transform="translate(237,699)" d="m0 0 1 4-8 18-2 3-2 7-8 18-8 12-6 11-8 12-9 13-7 11-8 11-7 7-10 13-8 9-7 6-9 11-9 9-3 4h-2l-2 4-35 35-6 7-9 7-11 6-9 3-1 3-6 3-5 4-5 5-12 6-1 3h-2l-3-10 1-9 3-6 4-5 5-3 25-1 6 1 5-3 8-6 6-5 5-5 10-8 15-15 16-17 15-15 4-6 9-10 2-3h2l1-4 2-2 1-2h2l2-4h2v-2l8-8 2-4 4-2 3-7h2v-3l3-3 3-6 3-1 1-5h2l1-5 3-3 1-4 5-5 8-14 7-14 11-25 8-13z" fill="#F0C088"/>
<path transform="translate(1061,501)" d="m0 0 6 3v6l-5 6-23 12-18 8-16 4-18 5-10 2-8 4-12-2-4 2-5 10-3-3-2-3-13-5-3-3v-6l6-2 17-2h10l1 1h17l12-3 7 1 6-2v-2l10-6 4-3 9-2 13-8 7-4 8-5z" fill="#B7864E"/>
<path transform="translate(580,282)" d="m0 0h6l2 5-1 4-3 1-2 6-10 7-8 10-4 6-10 14h-2l-2 4-5 7-6 3-1 1h-6l-3-4v-10l3-4 4-1 4-9 2-9 4-7 6-7 5-5 7-6 4-2 10-2z" fill="#FEFBE0"/>
<path transform="translate(839,389)" d="m0 0h15l7 2 3 12 3 4-1 11-5 6-2 1-4 9-5 3-7 3-2 1-29-1-9 2-9 3-20 8-8 5-12 4-6 6-7 1-1-3 2-4 7-6 6-9 9-9 4-1-1-3 6-8 2-1 5-5 5-4 11-7 5-4 11-7 5-2 7-4 6-2h8zm9 6-3 1h-10l-17 6-18 10-8 6-10 8-4 8-8 7-6 4-2 3v5h7l8-6 11-4 8-4 15-2h17l5 1h7l9-5 10-13 3-6-1-6-5-7-2-6z" fill="#FDD5A1"/>
<path transform="translate(1313,328)" d="m0 0 1 3-8 29-9 35-2 12-1 33 4 5 6 4h8l11-2 21-2 16-3 20-4h5l-2 4-22 11-30 11-23 6-16 4-6 2-3 10-5 12-7 36-4 16-5 23-2 11h-1l1-12 3-16 6-23 5-30 3-12 5-12 3-5 6-4 12-4 12-3 4-4-15-1-5-3-6-10-2-2v-15l1-21 4-19 10-38 6-20z" fill="#FFFBE0"/>
<path transform="translate(701,550)" d="m0 0h4l1 3-3 8v9l4 2 3-2-3 10-6 16-14 31-11 26-7 13-1-2 7-14h-7l-1-5 3-8 3-12 6-21 2-3 9-30 3-11 6-9z" fill="#F0BF88"/>
<path transform="translate(1671,567)" d="m0 0 7 1 12 4 19 1 5 1h14l19-3h14l5 4-1 5-20 6-19 4-8 1h-20l-3-1v-2h-2v2l-6-2-11-4-7-7z" fill="#B7864E"/>
<path transform="translate(1185,481)" d="m0 0 12 5 19 3 6 3 3 4v8l-9 27-4-1-5-12-10-5-10-3-9-8-7-13 1-4z" fill="#D2A269"/>
<path transform="translate(1682,80)" d="m0 0 9 1 2 2-1 10h-2l-7 13-9 7-7 9-5 5-7 9-4 6-5 2v2h-2l-1 3-5 5-7 8-5 5-3 13-2 8h-2l-1-14 5-10 12-11 6-9 6-8 5-15 5-10v-11l2-7 2-4 17-8z" fill="#F0C088"/>
<path transform="translate(1059,382)" d="m0 0h6l5 5 2 3v12l-2 5-5-1-4-5-12-2-7-1-12 2-12 5-12 6-17 11-8 5h-2l1-6 7-10 14-9 15-11 12-6 12-2z" fill="#A87B47"/>
<path transform="translate(1337,405)" d="m0 0 8 6 11 4 17 2 5 6 1 4-4 5-8 4-12 2-11 3-19 1-14 2-2 1h-6l-1-2h6l12-5 3-1 1-4 3-5 1-12 4-5 4-2z" fill="#F1C088"/>
<path transform="translate(811,445)" d="m0 0h16l15 2 8-2 3 3-1 5-3 3-10 4-5 3-2 3h-8l-4-1h-16l-14 4-13 7-3 2-4-1-1-4 3-6 6-7 3-3 16-6 10-5z" fill="#B7864E"/>
<path transform="translate(728,408)" d="m0 0 4 2 1 6v13l-3 19v13l-3 10-6 9-1 2h-2l-2 4-7 9-4 5-3 1-1-4v-9l3-10 5-13 5-11 4-23 4-14z" fill="#D2A269"/>
<path transform="translate(1356,280)" d="m0 0 4 2-2 9-3 12 2-2-1 8-10 40-1 15-1 14-3 9v9l8 6 13 6v3l3 6-9-1-12-5-8-6-4-9v-26l3-19 6-24 2-1v-6l2-4 2-9zm-3 26 1 2zm-7 7m4 5 1 2zm-2 6 1 4zm-1 4-4 12-1 4-1 11 2-1 5-21v-5zm-6 2 1 2z" fill="#E9D1B2"/>
<path transform="translate(1028,418)" d="m0 0h1l1 5v13l-2 20-2 4-2-8-8 16 3 3-17 12-11 7-20 8-9 3h-5v-7h-8l-1-3-8-1v-4l-3 1v-2l5-5h3l-2 9 36-8 16-8 8-6 9-7 5-6 5-12v-5l-1-4 2-4h3z" fill="#FCD5A3"/>
<path transform="translate(838,405)" d="m0 0h8l9 3 2 3-1 7-6 7-10 5-22 2h-23l-2-4 3-7 13-8 16-3z" fill="#FEFEF0"/>
<path transform="translate(1699,425)" d="m0 0 1 2-7 11-7 15-7 21-7 19-5 31v11l5 10 5 5v2l4 1 10 4h16l1-1 18-2 3-1v-4l-7-3-7-14-2-10v-13h1l2 18 7 14 13 7 7 4-1 4-6 2-9 2h-37l-16-7-5-4-7-13-2-4v-16l1-15 3-12 12-25 8-15 3-8 9-11z" fill="#FEFBE0"/>
<path transform="translate(434,164)" d="m0 0v3l-2 5-4 6-3 4-8 15-11 23-12 27-6 10h-2v3l-5 5-5 8-5 13-2 9-6 18-5 11-4 9-3 8-2 14-3 12-3 7-3 11-6 16-4 12-7 15-3 14-1 14 5 2v1h-7l-1-1v-20l5-17 14-35 8-24 4-23 5-13 8-18 4-13 6-16 11-19 8-11 6-15 6-13 10-24 8-13 5-7 2-1 5-9z" fill="#FED6A2"/>
<path transform="translate(1582,274)" d="m0 0h1l-1 7-7 14-7 21-3 18-2 14-5 22-3 11-4 24-5 25-3 24-2 24v42l1 9-2 2-13 3-8 4-8 2 1-2 13-5 9-3 3-3-1-19v-31l2-35 2-13 4-16 3-17 5-24 5-19 5-23 3-18 8-21 8-16z" fill="#FED6A2"/>
<path transform="translate(640,446)" d="m0 0h13l5 4 1 2v6l-5 13-5 6-3 1-4-4-1-3-5 1-8 3-6 1-6-5-2-6v-5l10-8z" fill="#D2A269"/>
<path transform="translate(471,452)" d="m0 0h7l-3 9-2 7-5 5-4 3-10-1-15 2-13 4-3 2h-6l-9 6-3 1-13 1-2-4 6-4 12-3 7-1 1-3 17-9 10-5 18-6z" fill="#A67A46"/>
<path transform="translate(1006,540)" d="m0 0 5 1 6-1-1 5 3 5 8 3 18 6 5 3 10 1 15-5 10-5 13-5v2l-4 4-3 6-10 7-7 3h-6l-3-5h-3l-6 2-7 1h-17l-7-4-12-9-4 2-6 4-3-7v-8h-6v-2z" fill="#EBD2B3"/>
<path transform="translate(1785,325)" d="m0 0 8 1 1 4-4 9-12 22-12 25-1-3 13-27 2-8v-5l-5-1-22 13-10 7-11 8-10 6-3 1-2 4-6 22h-1v-8l1-6-3-9 1-5 2-4 9-1 18-11 13-11 15-10 16-12z" fill="#FFFBE0"/>
<path transform="translate(1859,493)" d="m0 0 3 1-2 7-8 13-6 9-7 11-5 3-4 1-6 5-9 4-5 4-6 3-8 1-1-3 5-5 6-4 3-1v-2l11-8 5-6 7-6 6 1v-7l-1-4 8-5 11-9z" fill="#B7864E"/>
<path transform="translate(1419,704)" d="m0 0 1 2-14 7h-2v3h-2l-1 7-6 4-6 9-10 5-5 2-5 6-7 4h-2v2l-8 5-14 11-6 5-4 4-6 4-5 10-3 5-8 4-2-1 11-12 8-10 29-29 11-9 13-12 15-11 15-9z" fill="#FDD6A2"/>
<path transform="translate(1355,98)" d="m0 0 10 1 4 4v8l-5 8-3 5-5 6h-2l-2 6-2-3v-3l-3 2 1 7 1 2-2 2-3-8-3-2 1-4 1-3-4-2-3-1-5 3-2 1 2-4 7-11 6-4z" fill="#F1C088"/>
<path transform="translate(434,169)" d="m0 0v3l-8 13-4 9-17 34-4 9-7 14-10 14-6 9-4 13-4 15-8 20-7 16-3 11-3 15-4 11-4 13-11 30-5 12-4 14-1 11 1 2-3-1 1-14 4-16 8-18 7-21 4-11 1-4 3-9 4-20 2-9 4-8 7-16 5-15 3-11 5-13 8-11h2v-3l2-1 6-11 9-20 7-16 10-19 4-8 6-9z" fill="#F1C088"/>
<path transform="translate(190,528)" d="m0 0 12 1h13l13-1-1 15-3 8-4 3-7-6-13-4-13-5-1-3h-2l2-6z" fill="#A77A46"/>
<path transform="translate(1584,170)" d="m0 0 3 1 6 8-2 16-2 1-1-5-7 1-9 5h-3l-2 7-5 1-1 5 1 3 3 1 2 4-4 3-7-1-5-1h-3l2-5 6-12 6-9 5-4 4-5 2-1 3-7 4-4z" fill="#F1C089"/>
<path transform="translate(1705,391)" d="m0 0h3l-1 9-7 8-4 8-4 7-6 5h-7l-2-2-2-7v-10l7-9 5-3 9-2z" fill="#D2A269"/>
<path transform="translate(1951,318)" d="m0 0 1 2 3 1 2 4 4 3 2 12-2 7-9 10h-1v-8l-2-2-11-2-2-2-8 1-8 8-2-1 12-12 4-5 8-7z" fill="#F1C189"/>
<path transform="translate(822,447)" d="m0 0h7l7 2 2 6-5 5-9 5h-20l-21 6-2-1 2-4 14-5h2v-2h2l2-9 3-2 11 1z" fill="#A77B47"/>
<path transform="translate(951,538)" d="m0 0 7 1 5 2 17-1 2 1v3l-5 1-1 3-7 3-12-2-4 2-5 10-3-3-2-3-13-5-3-3v-6z" fill="#A77A46"/>
<path transform="translate(1330,474)" d="m0 0 5 1-1 6-3 3-12 5-12 6-10 3-5 4-2 3h-4v-8l3-8 11-7 7-2z" fill="#A67A46"/>
<path transform="translate(367,493)" d="m0 0 4 1 1 4-5 1-13 1v2l-4 1v2l-10 3h-3v2l-5 3-9 4-6 2-8 11h-2l1-10 2-11 5-3 21-6 21-3z" fill="#B7864E"/>
<path transform="translate(697,504)" d="m0 0 9 2 1 1v5l-7 8-6 10-6 9-11 24-5 15-10 37-2 9-4 10-1 7-4 7h-2l-2 6-6 8-9 5h-3l4-5 9-6 6-14 5-10 6-19 7-26 4-12 2-8 10-23 7-14 10-16 3-7-5-2z" fill="#FED6A2"/>
<path transform="translate(1412,127)" d="m0 0 1 3-3 10-3 3h-3l1 8-2 7-3 1-1-3-12 31-7 21-3 8-1-4 3-21 4-9h2l2-16 5-14 6-10 5-7 7-5z" fill="#F0C08A"/>
<path transform="translate(1351,222)" d="m0 0 1 3-3 13-6 16-10 35-9 36-9 31-5 17-5 21-3 23-1 15-1 6 2 5-4-2v-16l1-15 3-17 3-16 7-24 5-20 8-25 6-24 5-16 3-8 10-30z" fill="#F1C088"/>
<path transform="translate(897,626)" d="m0 0 7 1 2 1 16 1 16 3 3 2h11l7 3v2h2v5l-2 1h-11l-22-4-13-5-8-4-7-4z" fill="#A67A46"/>
<path transform="translate(1299,517)" d="m0 0h5l1 2-5 25-7 33h-2l-2-14-3-9 1-9 2-2 3-14 3-9z" fill="#F0BF87"/>
<path transform="translate(1622,840)" d="m0 0 2 2 4 5-3 1 6 3 6-1 5-3h2l1-3 1 2-8 8h-10l-9 2-5 10-13 5-10 3-4-1 12-13 11-9z" fill="#F1C189"/>
<path transform="translate(1706,577)" d="m0 0 6 1 9 4 7 1v-2l11-2 11-1 7-1 3 3-1 2-22 6-19 3h-12l-7-5 1-5h3l1-3z" fill="#A87C47"/>
<path transform="translate(1097,548)" d="m0 0 1 2-4 4-3 6-10 7-7 3h-6l-3-5h-3l-6 2-7 1h-8l2-2-10-5-3-4v-2l-2-1 6 1 11 4 5 3 10 1 15-5 10-5z" fill="#FDD5A2"/>
<path transform="translate(1329,497)" d="m0 0 4 1-8 4-1 4-7 10-6 11-1-4-5 12-6 21-4 22-2 4-1-5 9-44 4-18 5-8 8-6z" fill="#E9D0B1"/>
<path transform="translate(1239,401)" d="m0 0h1l2 13-6 16-1 10-2 9-6 6-4 1-3-3 1-7 7-14 3-16 6-10z" fill="#D2A269"/>
<path transform="translate(943,479)" d="m0 0 2 1-2 9 23-5 13 1 2 1 1 6-3 3-17 6h-5v-7h-8l-1-3-8-1v-4l-3 1v-2l5-5z" fill="#E9D2B4"/>
<path transform="translate(1175,585)" d="m0 0 1 3-2 10-1 11-8 39-2 1-2 6-1-4-4 16-7 17-4 7-1-3 14-40 7-31 7-25z" fill="#E9D2B4"/>
<path transform="translate(623,219)" d="m0 0 5 1-5 5-20 8-19 5-16 3h-13l-3-2 20-3 13-6 16-4 9-5 6-1 2 2z" fill="#D5A56D"/>
<path transform="translate(1040,383)" d="m0 0h19l-4 2h-13l-17 4-10 6-2 3h-2l-2 5-6 7-2 1-1 4-19 12h-2l1-6 7-10 14-9 15-11 12-6z" fill="#B8874F"/>
<path transform="translate(443,462)" d="m0 0 3 1-6 4-11 5-3 1v3h9l5-2 11-1 3-2 12 1h3l-5 4-10-1-15 2-13 4-3 2h-6l-9 6-3 1-13 1-2-4 6-4 12-3 7-1 1-3 17-9z" fill="#B5854D"/>
<path transform="translate(458,624)" d="m0 0 2 1v5l-2 3-1 5v22l4 9 7-1 2-1h15l5 3-1 4-11 6-8 6-9 3-6 5v-3l4-6 9-1 9-6-1-3-6-2-9-1-5-6-3-9v-17l4-15z" fill="#FED6A2"/>
<path transform="translate(1205,554)" d="m0 0h2l1 3v16l-2 13-4 8-5 16-1 2h-2l-1-4 3-13 4-33z" fill="#D2A269"/>
<path transform="translate(637,7)" d="m0 0h31v1l-30 2-16 4-14 3-24 8-30 12-3-1 1-2 19-8 12-6 18-6 26-6z" fill="#FDD7A4"/>
<path transform="translate(343,520)" d="m0 0h5l1 2-8 7-7 11-13 25-8 16-2 2-1-5 2-6 4-8 1-7 6-14 3-3h2l2-5 11-12 2-2z" fill="#EFC390"/>
<path transform="translate(1806,497)" d="m0 0 3 1-7 8h-2l-2 4-5 4-3 8-4 2 5-1 4-2 10-1 2-2 3 1-6 5-1 5h-2l-1-2-7 2-4 1h-8l-2-5 1-5-3-1 2-2 7-2 5-6h2l2-5 3-4 1 4 3-1z" fill="#FACF9A"/>
<path transform="translate(1199,491)" d="m0 0h12l9 3 3 4-1 7-6 8-5-3-8-9-5-9z" fill="#A77B46"/>
<path transform="translate(1859,493)" d="m0 0 3 1-2 7-8 13-6 9-5 8-4 1v-5l2-4 1-11-1-4 9-5z" fill="#A87B47"/>
<path transform="translate(513,556)" d="m0 0h5l-3 10-6 15-8 21-4 15-1 9h-3l-2-3v-10l2-1 1-11 2-2 2-6 3-3 9-26 1-5z" fill="#EBBD87"/>
<path transform="translate(1609,271)" d="m0 0 3 2-1 9-7 25-14 54-4 14h-1l1-8 3-15v-9l8-30 1 4 5-16 2-9-1-4zm-13 51 1 2z" fill="#E9D1B4"/>
<path transform="translate(1756,483)" d="m0 0 1 3v20l7 11v10h-3v-3l-3 2-4-5-3-7-3-17v-6l4-4-1 5 1-1 3-7z" fill="#EFC391"/>
<path transform="translate(100,826)" d="m0 0 4 2 1 5-6 9-7 11-7 5-4-1-1-3 3-5 5-4 2-8 5-8z" fill="#FED6A2"/>
<path transform="translate(241,689)" d="m0 0 1 2-8 16-6 10-10 23-11 22-9 12-3 6-3 5h-2l-1 5-5 2 2-5 7-10 14-22 7-14 3-7 14-31 6-8z" fill="#FED6A2"/>
<path transform="translate(190,528)" d="m0 0 12 1 11 1-4 2-7 1-1-1h-8v5h12l7 4 8 9 3 2-3 2-7-6-13-4-13-5-1-3h-2l2-6z" fill="#B7864E"/>
<path transform="translate(1504,412)" d="m0 0h3v8l-6 25-2 6h-2v3h-4l3-24 6-15z" fill="#D2A269"/>
<path transform="translate(452,656)" d="m0 0 2 1 4 10 3 4 9 1 6 2 2 4-5 4-5 3h-9l-2 5-7 8-2-1 1-2h2l2-5 7-8-1-4-6-15z" fill="#FEFBE0"/>
<path transform="translate(911,606)" d="m0 0 8 3 7 3 12 4 14 1h20l26-4 6 1v2l-25 4h-37l-16-4-15-7z" fill="#FCD5A3"/>
<path transform="translate(450,484)" d="m0 0 4 2v3l2-1 1 4-2 3-12 2h-13l-3-4 2-4h9v-2h5l2-2h3v2h2z" fill="#F0BF87"/>
<path transform="translate(595,301)" d="m0 0h6v4l-8 7-9 11-5 2-2-3v-7l4-5 5-1 2-4z" fill="#B8874F"/>
<path transform="translate(376,267)" d="m0 0v3l-8 16-6 17-3 10-10 22-3 14-3 16-7 21-2 2 1-5 7-24 2-15 1-3 2-9 8-19 9-24 8-16z" fill="#FFFBE0"/>
<path transform="translate(1577,406)" d="m0 0 1 4-4 30-2 1-2 9v31h-1l-2-15-1-2-1-13 1-12 2 4 3-24 3-4 2-7z" fill="#E9D1B2"/>
<path transform="translate(749,382)" d="m0 0h3l1 2 5-1 1 2 5 1-2 6-5 2-4 4-2-1-5 5h-1v-11h-5v-2l-2-1 1-3 3-1 2 2 2 1v-3h3zm0 3 1 2 1-2z" fill="#FBD19D"/>
<path transform="translate(1782,578)" d="m0 0 1 3-13 40-2 10-4 9h-2l8-36 4-15h2l3-9z" fill="#EFC390"/>
<path transform="translate(333,502)" d="m0 0h8l-4 4-12 7-9 3-5 7h-1v-14l5-3 14-3z" fill="#A77A46"/>
<path transform="translate(849,445)" d="m0 0 3 1 1 6-4 4-10 4-5 3-2 3h-8v-2l9-5 4-2-1-7-2-1v-2h8z" fill="#B6854D"/>
<path transform="translate(1028,418)" d="m0 0h1l1 5v13l-2 20-2 4-2-8h-2l-1 3-3-3 4-10v-5l-1-4 2-4h3z" fill="#F6D4A8"/>
<path transform="translate(168,551)" d="m0 0 2 3 6 8v3l4 9 1 5h2v5l1 4-1 7-3-3v-2h-2l-4-16-8-14-1-5zm6 16 1 2 1-2z" fill="#F1D1A9"/>
<path transform="translate(1530,433)" d="m0 0h1l1 6-3 18-4 13h-4v-14l4-15z" fill="#FEFEFE"/>
<path transform="translate(276,580)" d="m0 0 1 3-14 38-9 30-6 21-3 7-1-3 8-30 3-9 3-8 3-12 6-16 4-8z" fill="#FFFBE0"/>
<path transform="translate(1042,519)" d="m0 0 3 1-1 5-16 8-5 2h-5l-1-4 6-5 11-5z" fill="#A87C48"/>
<path transform="translate(742,112)" d="m0 0 1 3-7 16-10 16-10 13h-3l1-4 4-6 5-4 15-30z" fill="#DCAE78"/>
<path transform="translate(1330,474)" d="m0 0 5 1-1 6-3 3-12 5-12 6-8 1 3-2 10-4 4-3h2l2-6-8-1 3-2z" fill="#B7864E"/>
<path transform="translate(1965,376)" d="m0 0 1 2-8 15-3 5-3 12-4 11-2 3-3 18-4 15-4 7-1-2 4-10 2-11 2-16 7-14 5-16 10-18z" fill="#FFFBE0"/>
<path transform="translate(1028,554)" d="m0 0 6 1 11 4 5 3 10 1 6-1-1 2-9 3-7 1h-8l2-2-10-5-3-4v-2z" fill="#FCD5A3"/>
<path transform="translate(504,363)" d="m0 0 4 1v18l-3 4-10 1 6-14 2-9z" fill="#D6A770"/>
<path transform="translate(158,460)" d="m0 0h5v2l-4 1 2 9v7l10 4v1l-10-1-6-4-3-9v-6l2-3z" fill="#F2C28A"/>
<path transform="translate(1626,221)" d="m0 0h1l-1 9-13 45-2 1-1-8 14-42z" fill="#EFC391"/>
<path transform="translate(607,447)" d="m0 0h2v5h-2l-1 4-5 7 5 2v1h-9l-2 3 5 2v2l-7-1-4-2 1-4 9-11 5-5h2z" fill="#EFC28F"/>
<path transform="translate(326,540)" d="m0 0 2 1-4 6-1 5h2v6l-9 16-4 9-2-1 1-7 2-4 1-3 2-4 1-7 6-14z" fill="#E9D1B4"/>
<path transform="translate(860,478)" d="m0 0 6 2 2 2-1 9-3 4-7-1-1-6 3-9z" fill="#D2A269"/>
<path transform="translate(1572,275)" d="m0 0h1l2 9-6 15-5 4h-3l1-7z" fill="#FEFEF0"/>
<path transform="translate(915,589)" d="m0 0 12 2 14 3-1 4h-15l-10-4-1-4z" fill="#FEFEFE"/>
<path transform="translate(251,447)" d="m0 0h1l-1 8-5 12-4 4h-4v-5l6-11 4-6z" fill="#D2A269"/>
<path transform="translate(1868,481)" d="m0 0h4l1 6-5 10h-2l1-6 1-3-6 1-8 7-9 8-2-1 6-7h2v-2l7-5 5-5z" fill="#F0BF87"/>
<path transform="translate(360,208)" d="m0 0 1 3-6 10-2 3h-4v-2l-5 1-4 1 5-8 14-7z" fill="#FED6A2"/>
<path transform="translate(453,694)" d="m0 0v3l-5 4-5 5-5 4-8 5-23 9-4-2 12-5 4-3h6l13-7 10-9z" fill="#FED6A2"/>
<path transform="translate(1702,396)" d="m0 0 1 3-4 5-5 9-3 3-4-1 1-8 1-2h2l2-5z" fill="#AB7D48"/>
<path transform="translate(518,371)" d="m0 0h6l2 7-3 3-3 1h-8l-1-1 1-7z" fill="#B5844D"/>
<path transform="translate(835,549)" d="m0 0 3 3 14 23 6 9-2 4-7-10-8-14-3-4-3-9z" fill="#F0C28D"/>
<path transform="translate(390,413)" d="m0 0 5 2 9 6 7 2v1l-6 1h-9l-1-1h-5l-7-7 5 1v-3h2z" fill="#ECD2B2"/>
<path transform="translate(597,465)" d="m0 0 15 2 3 3v2h-3v2l-5 1-7-2v-2l-6-1z" fill="#D4A46C"/>
<path transform="translate(1826,528)" d="m0 0 5 2 1 3-4 5-11 6h-3l1-5 7-6z" fill="#A67A46"/>
<path transform="translate(696,478)" d="m0 0h1v25l3 3 2 1-1 5-10 17-5 8-5 11-1-3 8-16 6-10 4-10-3-5-1-6v-11z" fill="#FEFBE0"/>
<path transform="translate(1174,667)" d="m0 0 4 1-1 7-4 10-3 4h-2l-1-6 1-7z" fill="#D2A269"/>
<path transform="translate(879,604)" d="m0 0 5 1 4 4 3 8-1 4-8-6-6-7v-2z" fill="#A67A46"/>
<path transform="translate(374,391)" d="m0 0 1 3 3-1 4 11 6 7 2 1-1 4 1 2-4-1-7-8-4-10z" fill="#EFC493"/>
<path transform="translate(1764,386)" d="m0 0 1 2-6 10-8 13-9 20-5 12-7 15-1-3 10-22 10-24 4-7 6-8z" fill="#FFFBE0"/>
<path transform="translate(1350,753)" d="m0 0m-1 1m-1 1m-1 1m-1 1m-1 1m-1 1m-2 1 2 1-4 3zm-3 4m-1 1m-1 1m-1 1m-1 1m-1 1m-1 1m-1 1m-1 1m-1 1m-1 1m-1 1m-1 1m-1 1m-1 1m-1 1m-1 1m-1 1v3l-5 10-3 5-8 4-2-1 11-12z" fill="#FDD7A5"/>
<path transform="translate(412,147)" d="m0 0h3v7l-3 5-9 3-2-2 6-9z" fill="#F1C088"/>
<path transform="translate(370,178)" d="m0 0 5 1 1 2h14l-2 2-9 3-3 9h-1v-8l-8 1v-6z" fill="#FBD29D"/>
<path transform="translate(530,521)" d="m0 0 2 1-9 22-5 1-1-8 4-5 6-4z" fill="#F0C089"/>
<path transform="translate(1685,442)" d="m0 0 1 3-3 7-14 28h-2l1-5 6-13 7-12 1-5h2z" fill="#FED6A2"/>
<path transform="translate(1806,497)" d="m0 0 3 1-7 8h-2l-2 4-5 4-1 3-4 1-1-4 4-5h2l2-5 3-4 1 4 3-1zm-21 21 3 1z" fill="#FCD4A0"/>
<path transform="translate(1157,653)" d="m0 0h1l-1 10-4 11-4 10-4 7-1-3 12-34z" fill="#EDC79A"/>
<path transform="translate(1622,840)" d="m0 0 2 2 4 5-6 1v2l-6 4-4 2-1-6z" fill="#F2C18A"/>
<path transform="translate(496,599)" d="m0 0h1v8l2 1-2 9-1 9h-3l-2-3v-10l2-1 1-11z" fill="#E9D1B3"/>
<path transform="translate(647,451)" d="m0 0h7l2 4-7 9h-2l-2-6v-6z" fill="#AC7E49"/>
<path transform="translate(1092,425)" d="m0 0 2 1v7l-4 10-5 5 1-10 4-11z" fill="#FEFEFE"/>
<path transform="translate(1735,479)" d="m0 0h2l1 4-3 10-3 5-3-1v-7l5-10z" fill="#B4844C"/>
<path transform="translate(875,384)" d="m0 0 9 2v2l7 1 3 5v-2h2l1 5h-5l-8-4-2-2-7-6z" fill="#FAD5A5"/>
<path transform="translate(1933,339)" d="m0 0 8 2 9 1 3 2 1 5-2 2-3-4-11-2-2-2h-7z" fill="#FED6A2"/>
<path transform="translate(1199,491)" d="m0 0h12v1l-6 1v6l6 7 3 3 6-3-2 5-3 2-8-7-9-13z" fill="#B7864E"/>
<path transform="translate(593,306)" d="m0 0h3l-1 4-7 8-5-1-2-2 3-4z" fill="#A77B47"/>
<path transform="translate(911,606)" d="m0 0 8 3 7 3 12 4 4 3-10-1-13-5-8-4z" fill="#FCD5A3"/>
<path transform="translate(944,448)" d="m0 0 4 1 1 6-5 4-6-1 1-5z" fill="#B7864E"/>
<path transform="translate(1023,637)" d="m0 0 1 2-9 3-12 2h-6l4-2 1-4h11l3 1z" fill="#D2A36A"/>
<path transform="translate(1006,540)" d="m0 0 5 1 6-1-6 7h-2v-3l-7 1-1 3-1-2h-6v-2z" fill="#F0C18A"/>
<path transform="translate(1040,383)" d="m0 0h19l-4 2h-13l-17 4-8 5-2-1 5-4 8-4z" fill="#B7864E"/>
<path transform="translate(1577,382)" d="m0 0h1v11l-3 15-2-2-1-10 1-1v-5l1-1v-5h2z" fill="#E9D0B1"/>
<path transform="translate(754,383)" d="m0 0h5v2l5 1-2 6-6 2-1-4 4-1 1-2-7 1v2l-5 1-2-1v-2l7-4z" fill="#FCD4A1"/>
<path transform="translate(503,584)" d="m0 0h1l1 7-6 16h-2v-11l1-3 3-3z" fill="#F0C08A"/>
<path transform="translate(1782,578)" d="m0 0 1 3-7 21-2-2 1-9 4-11z" fill="#E9D1B3"/>
<path transform="translate(965,427)" d="m0 0 5 1 4 2-2 4-5 3-3-1-1-7z" fill="#B8874F"/>
<path transform="translate(1359,409)" d="m0 0 8 1 12 6v1h-14l-4-6z" fill="#FDD5A2"/>
<path transform="translate(325,442)" d="m0 0 3 1 2 5-3 6-4 1-1-1 1-9z" fill="#B7864E"/>
<path transform="translate(550,374)" d="m0 0 1 2-2 5v9l-11-6 4-1v-2z" fill="#DDB381"/>
<path transform="translate(1640,188)" d="m0 0 1 3-9 20-2 3-2-2 1-5 4-8 3-3z" fill="#F0C18B"/>
<path transform="translate(1299,548)" d="m0 0 1 4-5 26-2 4-1-5 6-28z" fill="#E9D2B5"/>
<path transform="translate(595,301)" d="m0 0h6v4l-5 3v-2l-8 4-4 1 4-6z" fill="#B7864E"/>
<path transform="translate(930,549)" d="m0 0h12l4 4 2 3 2-2-1 6h-3l-3-5-13-5z" fill="#B7864E"/>
<path transform="translate(725,144)" d="m0 0 1 3-10 13h-3l1-4 4-6z" fill="#D4A66F"/>
<path transform="translate(424,433)" d="m0 0h7l4 2-4 2-8 2-4 2-4-1z" fill="#F4C58E"/>
<path transform="translate(413,413)" d="m0 0 3 1-3 5-2 2-5-1-5-2 1-2 4-1 5-1z" fill="#F4CE9F"/>
<path transform="translate(513,556)" d="m0 0h5l-3 10-2 4-3-1v-8z" fill="#D8AA74"/>
<path transform="translate(1034,556)" d="m0 0 9 2 7 4 10 1 6-1-1 2-8 2-12-3-11-6z" fill="#EBD2B3"/>
<path transform="translate(463,455)" d="m0 0 2 1-5 2-2 7-3 1-2-1-2-3h-5l3-2z" fill="#B7864E"/>
<path transform="translate(521,288)" d="m0 0 1 2-6 12-1 4h-2l-1 8h-1v-7l5-15 4-1z" fill="#F7CB95"/>
<path transform="translate(374,373)" d="m0 0 2 3 1 18h-2l-2-4v-15z" fill="#D8AA74"/>
<path transform="translate(1175,585)" d="m0 0 1 3-5 21-1 2h-2l1-9 5-15z" fill="#EFC492"/>
<path transform="translate(1043,394)" d="m0 0 7 1 2 2 9 2-3 1-9-1-7-1-7 1-2-2z" fill="#B7864E"/>
<path transform="translate(1300,808)" d="m0 0 2 4-4 7-2 3h-5l5-9z" fill="#FED6A2"/>
<path transform="translate(648,639)" d="m0 0 1 3-6 14-8 6-4 2 1-4 7-4 5-8z" fill="#FFFBE0"/>
<path transform="translate(989,538)" d="m0 0 7 1-1 4-4 1h-7v-4z" fill="#A67A46"/>
<path transform="translate(397,227)" d="m0 0 1 3-7 16-4 7-5 5 2-5 8-16z" fill="#FFFBE0"/>
<path transform="translate(1160,640)" d="m0 0 6 2-1 6-2 1-2 6-1-4-1 2h-2z" fill="#F7D4A8"/>
<path transform="translate(258,425)" d="m0 0h3l-1 7-3 6-3 1 1-6 2-7z" fill="#D2A269"/>
<path transform="translate(910,392)" d="m0 0 3 2 4-1 4 3-4 1-5-1-1 3-4-1-2-4v-1z" fill="#FBD5A4"/>
<path transform="translate(954,555)" d="m0 0 4 1 3 3v5l-5-1-3-3z" fill="#F1C088"/>
<path transform="translate(1756,517)" d="m0 0 7 5v-5h1v10h-3v-3l-3 2-4-5v-2h2z" fill="#E9D1B3"/>
<path transform="translate(1237,668)" d="m0 0h1l-1 8-5 8-1-4 3-9z" fill="#B3834C"/>
<path transform="translate(684,626)" d="m0 0h1v6l-4 6-2-1-1-6 3-4z" fill="#D2A269"/>
<path transform="translate(168,551)" d="m0 0 2 3 6 8v3 2h-2l-3-7h-5l-1-5z" fill="#ECCDA8"/>
<path transform="translate(167,559)" d="m0 0 5 1 2 3 2 11h-2l-7-13z" fill="#F0C18C"/>
<path transform="translate(800,376)" d="m0 0h6l-7 7v-2l-4 3-4-1 3-5 4-1 1 1z" fill="#F8CE9A"/>
<path transform="translate(1122,410)" d="m0 0 5 1-2 6-2 3-3-1v-6z" fill="#D2A269"/>
<path transform="translate(749,382)" d="m0 0h3l-1 3h-2l-1 3h-2l-1 3h-5v-2l-2-1 1-3 3-1 2 2 2 1v-3h3z" fill="#F7CD98"/>
<path transform="translate(2033,293)" d="m0 0h4l1 5-2 4h-3v-2h-2v-5z" fill="#D4A46C"/>
<path transform="translate(835,549)" d="m0 0 3 3 5 8 2 9-4-5-3-4-3-9z" fill="#EACEAB"/>
<path transform="translate(1987,431)" d="m0 0 2 1-7 19-2 1 2-11z" fill="#FDD5A2"/>
<path transform="translate(1762,412)" d="m0 0h1v7l-3 6-4 1 1-5 4-8z" fill="#B7864E"/>
<path transform="translate(744,80)" d="m0 0h1l1 13v12l-2 3-1-18-1-3h2z" fill="#D2A269"/>
<path transform="translate(756,387)" d="m0 0h4l-2 4h-2l-1 4-3 1-3-4 1-2h3v-2z" fill="#F1C089"/>
<path transform="translate(454,471)" d="m0 0 12 1h3l-5 4-10-1h-5z" fill="#B7864E"/>
<path transform="translate(649,203)" d="m0 0h7v3l-4 4h-3v-2l-2-1v-2h2z" fill="#D3A46C"/>
<path transform="translate(1754,489)" d="m0 0h2l-1 12-2 3-2-7 1-6h2z" fill="#D3A36B"/>
<path transform="translate(1023,443)" d="m0 0h1v9h-2l-1 3-3-3 2-6z" fill="#ECD2B1"/>
<path transform="translate(939,617)" d="m0 0h13l5 1-4 2h-11v-2z" fill="#FED6A2"/>
<path transform="translate(927,613)" d="m0 0 5 1 10 4v1l-10-1-6-2z" fill="#FAD5A5"/>
<path transform="translate(1756,483)" d="m0 0 1 3v10l-1 10h-1l-1-9 2-8h-2l-1 2 1-6z" fill="#EEC697"/>
<path transform="translate(443,462)" d="m0 0 3 1-6 4-11 5-3-1 12-7z" fill="#B7864E"/>
<path transform="translate(1506,539)" d="m0 0h5v2l-7 3-9 1 1-3 9-2z" fill="#FCD5A3"/>
<path transform="translate(1751,487)" d="m0 0 1 2v4 8h-3l-1-10z" fill="#EDC89D"/>
<path transform="translate(1300,482)" d="m0 0 3 1-9 6-5 5-2 3 1-6 5-5z" fill="#B7864E"/>
<path transform="translate(176,567)" d="m0 0 2 2 2 7-1 2-4-1-1-8z" fill="#EBD2B2"/>
<path transform="translate(506,355)" d="m0 0 3 1v11l-2-3-3-1 1-6z" fill="#EFC491"/>
<path transform="translate(176,577)" d="m0 0 3 3 3 5v5l-3-1-3-8z" fill="#F0C28C"/>
<path transform="translate(373,360)" d="m0 0h1l1 13-2 6h-1v-15z" fill="#EDC99E"/>
<path transform="translate(1573,179)" d="m0 0 1 4-5 4-4 5-2-1 7-10z" fill="#FED7A3"/>
<path transform="translate(1121,744)" d="m0 0h3l-2 6-6 10-1-2z" fill="#F6D4A8"/>
<path transform="translate(761,385)" d="m0 0 3 1-2 6-6 2-1-4 4-1z" fill="#FCD5A3"/>
<path transform="translate(759,479)" d="m0 0 4 1 3 1v4l-6-1v-2h-2z" fill="#B7864E"/>
<path transform="translate(716,461)" d="m0 0h2v6l-4 4-1-4z" fill="#B7864E"/>
<path transform="translate(785,377)" d="m0 0 2 2-4 4-3 5v-3l-2-1 2-4z" fill="#F7CE9B"/>
<path transform="translate(1360,274)" d="m0 0h2v6l-1 2h-3l-1 2-1-5h2z" fill="#EFC28F"/>
<path transform="translate(1615,846)" d="m0 0 2 1-3 3 4 2-4 4-2-1-1-5z" fill="#FAD29F"/>
<path transform="translate(503,584)" d="m0 0h1l1 7-2 2-6 5 1-5 3-3z" fill="#EBCBA5"/>
<path transform="translate(1286,497)" d="m0 0h1v5l5-3 2-2 3 1-5 4-2 3h-4z" fill="#B7864E"/>
<path transform="translate(401,420)" d="m0 0 10 3v1l-6 1h-9l2-3h3z" fill="#F6D4A8"/>
<path transform="translate(1782,578)" d="m0 0 1 3-2 6h-4l1-5z" fill="#EFC38F"/>
<path transform="translate(1028,418)" d="m0 0h1l1 5v12l-2-2-1-9z" fill="#E9D2B5"/>
<path transform="translate(1364,410)" d="m0 0 5 1 10 5v1h-6l-5-4-4-2z" fill="#E9D2B5"/>
<path transform="translate(237,693)" d="m0 0 1 2-7 10-3 4 1-5 4-6z" fill="#FFFBE0"/>
<path transform="translate(513,556)" d="m0 0h5l-2 7h-3v-3l-2-1z" fill="#EBBE8A"/>
<path transform="translate(1849,514)" d="m0 0h2l-2 5-6 8-1-2 6-10z" fill="#B7864E"/>
<path transform="translate(1767,627)" d="m0 0 2 2-5 11h-2l2-9 2-1z" fill="#ECCFAA"/>
<path transform="translate(1807,518)" d="m0 0 3 1-6 5-1 5h-2l-1-4 5-5z" fill="#F1C088"/>
<path transform="translate(1237,328)" d="m0 0h3l-1 5-3 4-2-1 2-6z" fill="#F1CA9C"/>
<path transform="translate(1626,221)" d="m0 0h1l-1 9-2 4h-2l2-10z" fill="#EBCCA6"/>
<path transform="translate(1350,129)" d="m0 0 1 2-1 8h-3l-1-7z" fill="#FAD09B"/>
<path transform="translate(521,462)" d="m0 0h2l-2 6-5 7-1-3z" fill="#FFFBE0"/>
<path transform="translate(354,188)" d="m0 0h2l-2 4-4 2 3-5z" fill="#FED6A2"/>
<path transform="translate(1382,408)" d="m0 0 5 1v2h-5z" fill="#F3D6AF"/>
<path transform="translate(226,431)" d="m0 0v3l-4 2 1-3z" fill="#F0D3AE"/>
<path transform="translate(890,398)" d="m0 0 5 2 2 2-5-1z" fill="#ECD2B1"/>
<path transform="translate(1221,390)" d="m0 0 1 3-2 4-1-3z" fill="#EDC99E"/>
<path transform="translate(1753,479)" d="m0 0h2l-1 4h-2z" fill="#EACEAB"/>
<path transform="translate(990,454)" d="m0 0 3 1v2h-3z" fill="#FFFBE0"/>
<path transform="translate(899,399)" d="m0 0 5 1-1 2h-4z" fill="#F0D3AD"/>
<path transform="translate(900,393)" d="m0 0 3 1 1 3h-2v-2h-2z" fill="#EED7B8"/>
<path transform="translate(787,381)" d="m0 0v3l-3 1 1-3z" fill="#FAD09B"/>
<path transform="translate(1770,516)" d="m0 0 1 3 2 1h-3z" fill="#EFD3AF"/>
<path transform="translate(220,438)" d="m0 0v3h-3z" fill="#ECD2B2"/>
<path transform="translate(858,594)" d="m0 0 3 2-1 2z" fill="#E5B985"/>
<path transform="translate(910,400)" d="m0 0 1 2-4 1v-2z" fill="#F3D4AB"/>
<path transform="translate(804,379)" d="m0 0 3 1-4 1z" fill="#F9CE99"/>
<path transform="translate(777,379)" d="m0 0h2v2l-3 1z" fill="#F8D1A0"/>
<path transform="translate(332,527)" d="m0 0v3z" fill="#E9D2B5"/>
<path transform="translate(372,397)" d="m0 0 1 4z" fill="#E9D2B5"/>
<path transform="translate(1114,752)" d="m0 0" fill="#F0D3AE"/>
<path transform="translate(1122,741)" d="m0 0" fill="#E9D2B5"/>
<path transform="translate(947,473)" d="m0 0 1 2-2-1z" fill="#E9D2B5"/>
<path transform="translate(904,399)" d="m0 0h2l-1 2z" fill="#E9D2B5"/>
<path transform="translate(918,393)" d="m0 0 3 1z" fill="#F7D4A8"/>
<path transform="translate(1222,387)" d="m0 0" fill="#EBCCA6"/>
<path transform="translate(743,382)" d="m0 0 2 1-2 1z" fill="#FED6A2"/>
<path transform="translate(1584,375)" d="m0 0" fill="#E9D2B5"/>
<path transform="translate(1598,310)" d="m0 0" fill="#E9D2B5"/>
<path transform="translate(1357,298)" d="m0 0" fill="#E9D2B5"/>
<path transform="translate(1364,278)" d="m0 0" fill="#E9D2B5"/>
<path transform="translate(1110,761)" d="m0 0" fill="#F3D4AB"/>
<path transform="translate(1111,759)" d="m0 0" fill="#FED6A2"/>
<path transform="translate(1112,757)" d="m0 0" fill="#FED6A2"/>
<path transform="translate(1113,755)" d="m0 0" fill="#FED6A2"/>
<path transform="translate(1115,750)" d="m0 0" fill="#FED6A2"/>
<path transform="translate(1116,748)" d="m0 0" fill="#FED6A2"/>
<path transform="translate(1117,742)" d="m0 0" fill="#E9D2B5"/>
<path transform="translate(1118,740)" d="m0 0" fill="#F3D4AB"/>
<path transform="translate(1119,738)" d="m0 0" fill="#FED6A2"/>
<path transform="translate(1143,691)" d="m0 0" fill="#E9D2B5"/>
<path transform="translate(1309,527)" d="m0 0" fill="#E9D2B5"/>
<path transform="translate(1761,467)" d="m0 0" fill="#E9D2B5"/>
<path transform="translate(1454,449)" d="m0 0 2 1z" fill="#E9D2B5"/>
<path transform="translate(612,442)" d="m0 0" fill="#E9D2B5"/>
<path transform="translate(425,416)" d="m0 0 2 1z" fill="#FED6A2"/>
<path transform="translate(374,405)" d="m0 0" fill="#E9D2B5"/>
<path transform="translate(900,402)" d="m0 0" fill="#E9D2B5"/>
<path transform="translate(373,402)" d="m0 0" fill="#E9D2B5"/>
<path transform="translate(887,396)" d="m0 0 2 1z" fill="#E9D2B5"/>
<path transform="translate(736,385)" d="m0 0 2 1z" fill="#FED6A2"/>
<path transform="translate(873,383)" d="m0 0 2 1z" fill="#FED6A2"/>
<path transform="translate(1583,379)" d="m0 0" fill="#E9D2B5"/>
<path transform="translate(1358,296)" d="m0 0" fill="#E9D2B5"/>
<path transform="translate(1362,284)" d="m0 0" fill="#E9D2B5"/>
<path transform="translate(1363,281)" d="m0 0" fill="#E9D2B5"/>
<path transform="translate(1108,765)" d="m0 0" fill="#E9D2B5"/>
<path transform="translate(1109,763)" d="m0 0" fill="#E9D2B5"/>
<path transform="translate(1116,744)" d="m0 0" fill="#FED6A2"/>
<path transform="translate(1123,738)" d="m0 0" fill="#E9D2B5"/>
<path transform="translate(912,639)" d="m0 0" fill="#D2A269"/>
<path transform="translate(864,601)" d="m0 0" fill="#F1C088"/>
<path transform="translate(863,600)" d="m0 0" fill="#F1C088"/>
<path transform="translate(862,599)" d="m0 0" fill="#D2A269"/>
<path transform="translate(861,598)" d="m0 0" fill="#D2A269"/>
<path transform="translate(857,593)" d="m0 0" fill="#F1C088"/>
<path transform="translate(856,592)" d="m0 0" fill="#E9D2B5"/>
<path transform="translate(855,590)" d="m0 0" fill="#E9D2B5"/>
<path transform="translate(854,589)" d="m0 0" fill="#E9D2B5"/>
<path transform="translate(853,588)" d="m0 0" fill="#E9D2B5"/>
<path transform="translate(852,586)" d="m0 0" fill="#E9D2B5"/>
<path transform="translate(851,585)" d="m0 0" fill="#E9D2B5"/>
<path transform="translate(850,583)" d="m0 0" fill="#E9D2B5"/>
<path transform="translate(849,582)" d="m0 0" fill="#E9D2B5"/>
<path transform="translate(848,580)" d="m0 0" fill="#E9D2B5"/>
<path transform="translate(847,578)" d="m0 0" fill="#E9D2B5"/>
<path transform="translate(846,576)" d="m0 0" fill="#E9D2B5"/>
<path transform="translate(333,526)" d="m0 0" fill="#E9D2B5"/>
<path transform="translate(334,525)" d="m0 0" fill="#E9D2B5"/>
<path transform="translate(617,479)" d="m0 0" fill="#E9D2B5"/>
<path transform="translate(1760,469)" d="m0 0" fill="#E9D2B5"/>
<path transform="translate(602,461)" d="m0 0" fill="#E9D2B5"/>
<path transform="translate(1e3 454)" d="m0 0" fill="#FFFBE0"/>
<path transform="translate(1e3 453)" d="m0 0" fill="#FFFBE0"/>
<path transform="translate(1006,452)" d="m0 0" fill="#FFFBE0"/>
<path transform="translate(1196,442)" d="m0 0" fill="#E9D2B5"/>
<path transform="translate(613,441)" d="m0 0" fill="#E9D2B5"/>
<path transform="translate(221,437)" d="m0 0" fill="#E9D2B5"/>
<path transform="translate(227,430)" d="m0 0" fill="#E9D2B5"/>
<path transform="translate(423,417)" d="m0 0" fill="#E9D2B5"/>
<path transform="translate(382,416)" d="m0 0" fill="#E9D2B5"/>
<path transform="translate(428,415)" d="m0 0" fill="#E9D2B5"/>
<path transform="translate(381,415)" d="m0 0" fill="#E9D2B5"/>
<path transform="translate(380,414)" d="m0 0" fill="#E9D2B5"/>
<path transform="translate(379,413)" d="m0 0" fill="#E9D2B5"/>
<path transform="translate(378,412)" d="m0 0" fill="#E9D2B5"/>
<path transform="translate(1390,411)" d="m0 0" fill="#FFFBE0"/>
<path transform="translate(377,411)" d="m0 0" fill="#E9D2B5"/>
<path transform="translate(376,409)" d="m0 0" fill="#E9D2B5"/>
<path transform="translate(375,408)" d="m0 0" fill="#E9D2B5"/>
<path transform="translate(889,397)" d="m0 0" fill="#E9D2B5"/>
<path transform="translate(923,394)" d="m0 0" fill="#E9D2B5"/>
<path transform="translate(742,394)" d="m0 0" fill="#FED6A2"/>
<path transform="translate(738,386)" d="m0 0" fill="#FED6A2"/>
<path transform="translate(763,384)" d="m0 0" fill="#FED6A2"/>
<path transform="translate(1224,383)" d="m0 0" fill="#E9D2B5"/>
<path transform="translate(871,382)" d="m0 0" fill="#FED6A2"/>
<path transform="translate(774,382)" d="m0 0" fill="#FED6A2"/>
<path transform="translate(760,382)" d="m0 0" fill="#FED6A2"/>
<path transform="translate(729,380)" d="m0 0" fill="#FED6A2"/>
<path transform="translate(1361,287)" d="m0 0" fill="#E9D2B5"/>
<path transform="translate(356,187)" d="m0 0" fill="#FED6A2"/>
<path transform="translate(357,186)" d="m0 0" fill="#FED6A2"/>
<path transform="translate(358,185)" d="m0 0" fill="#FED6A2"/>
<path transform="translate(453,176)" d="m0 0" fill="#E9D2B5"/>
<path transform="translate(398,138)" d="m0 0" fill="#E9D2B5"/>
<path transform="translate(399,137)" d="m0 0" fill="#FFFBE0"/>
</svg>
